<?xml version="1.0" standalone="no"?>
<!DOCTYPE svg PUBLIC "-//W3C//DTD SVG 20010904//EN"
 "http://www.w3.org/TR/2001/REC-SVG-20010904/DTD/svg10.dtd">
<svg version="1.0" xmlns="http://www.w3.org/2000/svg"
 width="64.000000pt" height="66.000000pt" viewBox="0 0 512.000000 512.000000"
 preserveAspectRatio="xMidYMid meet">

<g transform="translate(0.000000,512.000000) scale(0.100000,-0.100000)"
fill="#ffffff" stroke="none">
<path d="M2250 4579 c-58 -4 -150 -17 -205 -28 -125 -26 -1815 -502 -1910
-538 -182 -69 -179 -176 9 -257 43 -19 170 -60 281 -91 l204 -58 3 -451 c3
-450 3 -451 26 -498 69 -138 234 -248 487 -324 l95 -28 0 -126 0 -125 -115
-89 -115 -88 0 -393 0 -392 -38 -11 c-102 -31 -182 -141 -182 -252 0 -164 98
-277 249 -288 165 -11 286 91 298 253 11 134 -57 241 -180 286 l-37 13 2 360
3 360 85 69 c157 127 140 97 140 250 0 74 2 136 5 139 3 3 45 -3 93 -12 48
-10 113 -21 145 -25 l57 -7 -2 -311 -3 -310 -44 -15 c-67 -22 -136 -96 -157
-168 -41 -143 20 -290 146 -348 68 -31 178 -28 247 7 157 81 194 316 70 445
-34 36 -96 72 -122 72 -13 0 -15 37 -15 306 l0 306 43 -6 c76 -11 289 -25 480
-32 l187 -7 0 -57 0 -57 -106 -83 c-58 -46 -110 -94 -115 -107 -5 -13 -9 -192
-9 -396 l-1 -372 -61 -30 c-108 -52 -154 -138 -146 -270 10 -148 103 -242 249
-253 120 -8 216 43 264 142 75 152 16 326 -130 387 l-55 23 0 360 0 361 101
80 c56 44 108 89 115 100 9 13 14 48 14 101 l0 81 123 7 c67 4 141 9 165 12
l42 6 0 -301 c0 -270 -2 -301 -16 -301 -29 0 -113 -52 -140 -87 -42 -55 -57
-103 -57 -179 0 -58 5 -83 27 -128 62 -128 193 -182 337 -140 75 22 148 96
173 178 24 76 17 159 -21 228 -31 56 -67 87 -136 118 l-47 21 0 299 0 300 23
4 c31 7 286 46 298 46 5 0 9 -52 9 -121 0 -66 4 -128 9 -137 5 -10 57 -55 115
-101 l106 -84 0 -362 0 -362 -43 -17 c-61 -23 -114 -70 -144 -130 -22 -42 -27
-64 -27 -126 0 -85 23 -145 76 -199 57 -58 103 -76 198 -76 76 0 91 3 138 30
90 49 138 138 136 250 -2 117 -58 204 -159 246 l-55 23 -2 390 -3 391 -112 89
-113 90 0 121 0 121 96 29 c54 16 147 53 208 83 91 45 124 67 182 126 117 117
114 100 114 629 l0 442 143 39 c200 55 364 112 421 147 l49 30 21 -21 c20 -20
21 -31 24 -374 l3 -354 -121 -91 c-104 -80 -120 -96 -120 -121 0 -35 23 -60
55 -60 13 0 59 27 104 60 l81 60 0 -61 c0 -78 11 -99 54 -99 44 0 57 17 63 90
6 62 12 70 33 45 24 -29 133 -95 156 -95 30 0 58 41 49 70 -4 12 -58 62 -120
111 l-114 90 -3 362 c-3 352 -4 363 -25 404 -22 41 -87 103 -109 103 -6 0 -31
14 -57 31 -25 16 -70 38 -99 49 -100 35 -1796 510 -1890 529 -84 18 -127 23
-298 35 -25 2 -92 0 -150 -5z m244 -119 c61 -6 153 -20 205 -31 151 -33 1649
-454 1664 -468 8 -8 -1107 -21 -1707 -21 -334 0 -346 -2 -346 -60 0 -60 -58
-57 1088 -54 673 3 1038 1 1022 -6 -36 -14 -1573 -446 -1688 -475 -163 -40
-222 -48 -362 -49 -197 0 -211 3 -935 207 -203 58 -541 153 -750 212 -209 59
-417 121 -464 137 -79 29 -83 32 -60 43 58 30 1767 515 1907 541 80 15 209 30
282 33 19 0 84 -4 144 -9z m-1130 -1060 c784 -222 751 -215 1006 -214 252 0
230 -5 1010 216 311 89 573 163 583 166 16 4 17 -21 17 -417 0 -484 4 -459
-94 -548 -354 -324 -1801 -418 -2653 -173 -260 75 -443 190 -473 299 -11 40
-14 841 -3 841 4 0 277 -76 607 -170z m428 -1927 c69 -41 95 -138 56 -212 -31
-60 -66 -83 -130 -88 -61 -5 -110 16 -141 59 -21 28 -34 111 -23 152 8 31 53
85 80 96 38 15 126 11 158 -7z m1288 -5 c69 -48 89 -137 48 -218 -70 -135
-273 -93 -294 61 -8 61 22 130 68 159 47 29 134 28 178 -2z m-1940 -510 c56
-29 82 -73 82 -137 0 -53 -17 -94 -56 -131 -21 -19 -40 -25 -89 -28 -72 -4
-114 16 -147 70 -24 40 -27 126 -5 168 38 74 133 99 215 58z m1247 3 c52 -24
83 -79 83 -148 0 -92 -63 -153 -159 -153 -68 0 -113 26 -140 84 -71 145 67
284 216 217z m1371 -8 c69 -51 89 -127 54 -206 -27 -61 -69 -87 -142 -87 -71
0 -115 26 -140 83 -42 91 -10 184 75 223 40 19 119 12 153 -13z"/>
</g>
</svg>
