<?xml version="1.0" standalone="no"?>
<!DOCTYPE svg PUBLIC "-//W3C//DTD SVG 20010904//EN"
 "http://www.w3.org/TR/2001/REC-SVG-20010904/DTD/svg10.dtd">
<svg version="1.0" xmlns="http://www.w3.org/2000/svg"
 width="64.000000pt" height="56.000000pt" viewBox="0 0 512.000000 512.000000"
 preserveAspectRatio="xMidYMid meet">

<g transform="translate(0.000000,512.000000) scale(0.100000,-0.100000)"
fill="#ffffff" stroke="none">
<path d="M2135 4996 c-43 -19 -92 -73 -110 -120 -9 -23 -28 -112 -43 -199
l-27 -159 -135 -44 c-74 -24 -194 -74 -267 -110 -81 -40 -137 -63 -145 -58 -7
4 -68 48 -134 96 -160 116 -212 134 -309 107 -32 -9 -75 -46 -209 -178 -93
-91 -188 -192 -212 -224 -87 -116 -74 -168 103 -413 l73 -101 -34 -62 c-55
-97 -106 -216 -150 -351 l-41 -125 -110 -17 c-215 -32 -243 -39 -287 -68 -24
-16 -55 -48 -68 -72 -25 -43 -25 -43 -25 -333 0 -277 1 -292 22 -337 36 -78
91 -102 327 -141 l140 -22 46 -138 c26 -76 77 -197 113 -270 l66 -131 -89
-122 c-49 -67 -98 -140 -110 -163 -25 -50 -28 -131 -7 -181 21 -52 381 -412
438 -439 93 -43 154 -24 342 112 56 40 108 77 115 81 9 5 62 -16 145 -57 73
-36 193 -86 267 -111 l135 -44 27 -159 c15 -87 35 -177 43 -200 20 -51 81
-108 132 -122 51 -15 755 -15 806 0 50 13 106 64 128 115 10 23 30 113 45 200
14 87 28 162 32 165 4 3 47 18 96 33 105 32 276 104 362 152 33 19 66 34 71
34 6 0 64 -39 129 -86 143 -105 182 -126 245 -132 86 -8 132 24 331 226 281
286 284 303 87 577 l-88 123 65 128 c36 71 86 192 112 269 l48 140 165 26
c101 16 180 34 205 47 62 32 100 82 114 148 16 75 8 532 -10 589 -27 88 -93
120 -329 159 -78 13 -143 25 -145 27 -2 2 -22 60 -45 129 -23 69 -72 186 -109
260 -36 74 -66 140 -66 145 1 6 41 64 89 130 48 66 96 138 106 160 23 49 24
133 4 183 -21 48 -374 401 -432 431 -90 45 -159 23 -338 -106 -60 -43 -116
-82 -123 -87 -8 -5 -64 18 -146 58 -73 37 -193 86 -267 110 l-134 44 -30 174
c-34 194 -53 240 -118 285 l-40 28 -406 2 c-320 2 -412 0 -436 -11z m825 -126
c31 -31 36 -51 65 -241 15 -96 33 -184 40 -195 8 -13 30 -24 52 -29 118 -22
393 -134 523 -214 19 -11 47 -21 61 -21 16 0 78 38 178 111 128 93 160 113
198 117 l44 5 184 -183 c101 -101 189 -196 195 -211 18 -43 1 -78 -120 -244
-60 -82 -110 -158 -110 -167 0 -10 25 -61 55 -115 68 -121 127 -266 166 -403
16 -57 35 -110 42 -117 7 -7 89 -24 182 -38 94 -14 189 -33 213 -41 70 -26 72
-36 72 -323 0 -163 -4 -259 -11 -275 -18 -39 -63 -54 -259 -87 -102 -16 -191
-35 -197 -42 -7 -7 -26 -60 -42 -117 -39 -137 -98 -282 -166 -403 -30 -54 -55
-105 -55 -115 0 -9 48 -82 106 -162 117 -159 138 -199 129 -239 -4 -18 -71
-93 -195 -216 l-189 -188 -45 5 c-38 5 -70 23 -198 117 -84 61 -162 111 -174
111 -12 0 -82 -31 -155 -69 -143 -74 -278 -127 -398 -157 -49 -13 -78 -26 -87
-39 -7 -11 -22 -83 -33 -160 -34 -224 -38 -241 -72 -270 l-31 -25 -372 0 -373
0 -26 26 c-28 28 -32 44 -72 279 -16 97 -30 154 -39 161 -9 6 -52 21 -98 33
-117 32 -265 93 -395 162 -61 32 -122 59 -135 59 -23 0 -102 -50 -272 -173
-123 -90 -113 -93 -332 125 -101 99 -188 194 -195 209 -17 43 -3 72 121 243
60 84 110 158 110 164 0 6 -31 71 -69 144 -73 141 -127 274 -162 404 -11 44
-26 85 -33 91 -6 7 -95 26 -196 43 -195 31 -241 46 -259 86 -16 35 -15 514 1
549 19 42 58 55 256 85 102 16 191 35 198 42 7 7 22 48 33 92 35 130 89 263
162 404 38 73 69 138 69 144 0 6 -50 80 -110 165 -115 158 -136 198 -126 236
3 12 90 106 194 210 167 165 192 187 221 187 44 0 69 -14 227 -130 80 -59 145
-100 159 -100 13 0 88 33 167 74 132 68 269 122 410 161 32 8 62 23 67 33 5 9
21 95 36 191 29 190 35 211 65 241 19 19 31 20 400 20 369 0 381 -1 400 -20z"/>
<path d="M2433 4060 c-254 -21 -495 -106 -714 -251 -126 -84 -324 -282 -408
-408 -257 -387 -325 -862 -185 -1296 146 -455 519 -828 974 -975 167 -54 309
-73 505 -67 181 6 258 19 415 69 356 114 661 363 849 693 128 225 191 470 191
745 0 700 -495 1311 -1183 1461 -76 17 -295 41 -337 37 -8 0 -56 -4 -107 -8z
m396 -140 c487 -99 889 -453 1045 -921 53 -157 57 -149 -68 -149 -73 0 -107 4
-113 13 -4 6 -26 52 -49 100 -65 138 -41 127 -298 127 l-221 0 -18 49 c-33 95
-148 171 -257 171 -103 0 -206 -61 -252 -149 -38 -72 -40 -181 -4 -257 101
-216 450 -198 518 28 l11 38 194 0 193 0 51 -107 c27 -59 55 -111 62 -115 7
-4 78 -8 159 -8 106 0 149 -3 155 -12 15 -25 7 -309 -12 -408 -98 -518 -469
-935 -970 -1089 -110 -34 -105 -38 -105 87 l0 108 110 51 c86 40 112 57 120
78 6 15 10 119 10 234 l0 208 39 11 c52 16 124 82 152 139 18 37 23 65 22 123
0 91 -24 151 -83 209 -50 49 -113 71 -199 71 -157 0 -271 -118 -271 -280 0
-118 50 -199 155 -251 l65 -32 0 -188 0 -187 -107 -52 c-59 -28 -111 -56 -115
-63 -4 -7 -8 -78 -8 -159 0 -106 -3 -149 -12 -155 -24 -14 -309 -7 -406 11
-272 49 -515 173 -714 364 -175 168 -290 347 -363 564 -53 158 -58 148 88 148
l123 0 44 -97 c66 -149 42 -137 304 -141 l224 -3 17 -46 c23 -61 67 -109 129
-141 42 -21 65 -26 126 -26 168 0 283 110 284 273 1 89 -23 148 -82 204 -62
57 -130 81 -220 75 -114 -7 -204 -70 -239 -167 l-18 -51 -192 0 -192 0 -28 63
c-15 34 -39 85 -53 112 l-25 50 -175 5 -175 5 -8 65 c-11 90 0 266 23 382 99
486 452 886 921 1042 159 54 149 59 149 -87 l0 -123 -97 -44 c-150 -66 -143
-50 -143 -308 l0 -217 -49 -18 c-140 -49 -209 -231 -143 -379 47 -108 131
-161 252 -162 93 -1 152 25 209 91 132 149 70 401 -111 455 l-38 11 2 195 3
194 90 42 c50 23 99 47 110 53 18 11 20 25 25 185 l5 173 50 7 c84 11 289 0
394 -22z m101 -752 c78 -53 100 -137 58 -218 -30 -58 -76 -84 -145 -84 -59 0
-93 19 -130 74 -30 44 -32 131 -3 178 44 72 152 96 220 50z m-764 -204 c51
-24 77 -68 82 -135 6 -76 -23 -130 -86 -160 -109 -53 -222 15 -229 138 -3 47
1 66 19 97 41 70 136 97 214 60z m949 -552 c45 -26 77 -96 72 -155 -14 -158
-221 -204 -301 -67 -40 69 -17 181 46 219 56 34 126 35 183 3z m-720 -182 c44
-27 68 -74 69 -134 2 -165 -197 -229 -296 -95 -41 55 -29 168 22 214 51 46
143 53 205 15z"/>
</g>
</svg>
