<?xml version="1.0" standalone="no"?>
<!DOCTYPE svg PUBLIC "-//W3C//DTD SVG 20010904//EN"
 "http://www.w3.org/TR/2001/REC-SVG-20010904/DTD/svg10.dtd">
<svg version="1.0" xmlns="http://www.w3.org/2000/svg"
 width="64.000000pt" height="56.000000pt" viewBox="0 0 512.000000 512.000000"
 preserveAspectRatio="xMidYMid meet">

<g transform="translate(0.000000,512.000000) scale(0.100000,-0.100000)"
fill="#ffffff" stroke="none">
<path d="M1275 4981 c-101 -14 -127 -49 -133 -187 l-4 -92 -66 -17 c-36 -10
-67 -14 -69 -9 -2 5 -23 41 -46 79 -70 114 -123 127 -250 64 -133 -68 -157
-94 -157 -173 0 -40 24 -99 69 -172 12 -18 9 -25 -35 -71 l-49 -51 -80 44
c-143 78 -192 58 -289 -117 -24 -44 -36 -79 -36 -105 0 -69 29 -100 174 -189
15 -9 15 -14 0 -65 -9 -30 -18 -61 -20 -67 -2 -9 -30 -13 -94 -13 -155 0 -181
-28 -187 -205 -4 -92 -1 -116 14 -145 25 -48 73 -69 178 -78 l88 -7 17 -62
c19 -71 23 -64 -62 -112 -135 -76 -142 -142 -33 -317 25 -39 56 -76 70 -82 55
-25 139 -6 215 48 15 11 32 20 38 20 5 0 31 -21 57 -47 l47 -48 -26 -45 c-53
-88 -68 -130 -61 -166 7 -40 51 -94 101 -124 l34 -22 0 -123 c0 -68 7 -177 15
-242 120 -923 793 -1673 1695 -1887 550 -131 1171 -34 1650 258 200 122 418
310 565 486 258 310 428 694 492 1110 23 157 23 462 0 620 -73 482 -287 911
-622 1245 -564 564 -1367 786 -2130 590 -71 -18 -154 -43 -184 -55 -44 -17
-57 -19 -67 -8 -10 11 -5 26 28 82 84 142 58 203 -125 300 -38 20 -83 36 -101
36 -49 0 -101 -42 -147 -120 -23 -39 -43 -70 -46 -70 -2 0 -33 7 -68 16 l-65
16 0 92 c0 144 -32 179 -175 189 -38 3 -92 2 -120 -2z m156 -121 c17 -10 19
-22 19 -110 0 -140 2 -144 97 -165 43 -9 101 -26 128 -36 28 -10 55 -19 61
-19 21 0 61 50 98 119 52 99 53 100 129 57 96 -53 97 -54 48 -136 -65 -110
-72 -129 -54 -163 8 -16 13 -30 11 -31 -2 -2 -48 -27 -103 -56 -55 -29 -138
-78 -184 -107 l-84 -55 -64 21 c-225 74 -481 -5 -632 -196 -139 -174 -158
-418 -51 -636 l30 -62 -41 -100 c-22 -55 -53 -144 -69 -198 -16 -55 -32 -102
-35 -105 -4 -4 -42 31 -86 77 -92 98 -94 99 -211 26 -40 -25 -82 -45 -93 -45
-15 0 -31 18 -58 63 -40 69 -46 101 -20 111 53 21 174 103 179 122 3 12 -6 59
-20 105 -13 46 -27 100 -31 120 -9 61 -29 71 -143 70 -55 -1 -107 2 -116 5
-13 5 -16 22 -16 88 0 50 5 87 12 94 8 8 49 12 117 12 59 0 112 4 119 9 7 4
24 50 37 102 14 52 30 113 37 136 11 39 10 44 -11 67 -13 14 -59 44 -102 66
-55 29 -79 47 -79 59 0 24 60 131 80 143 11 7 40 -5 105 -41 50 -28 101 -51
113 -51 17 0 54 30 123 100 116 117 115 108 36 237 -42 70 -48 85 -37 98 18
21 137 88 150 83 6 -2 32 -41 59 -88 26 -46 59 -93 72 -102 24 -18 26 -18 79
0 48 16 106 31 186 47 33 7 44 48 44 160 0 73 4 105 13 108 23 10 138 7 158
-3z m1649 -411 c678 -61 1271 -436 1625 -1025 444 -740 376 -1700 -170 -2379
-337 -420 -809 -690 -1345 -770 -152 -23 -435 -23 -585 -1 -853 129 -1540 750
-1744 1576 -217 882 148 1790 919 2285 234 150 571 272 845 304 187 23 293 25
455 10z m-1611 -374 c7 -4 -32 -47 -96 -108 -161 -154 -286 -313 -419 -533
-10 -16 -14 -9 -33 50 -97 313 133 617 456 602 44 -2 86 -7 92 -11z m-774
-1451 c-5 -29 -9 -33 -20 -24 -12 10 -11 17 3 47 19 39 27 29 17 -23z"/>
<path d="M2690 4289 c-882 -99 -1581 -774 -1715 -1655 -20 -133 -20 -411 0
-551 106 -730 612 -1337 1308 -1568 685 -228 1421 -66 1945 429 627 592 789
1520 401 2287 -153 302 -376 553 -660 744 -113 76 -340 187 -469 229 -253 82
-555 114 -810 85z m566 -143 c778 -164 1356 -790 1453 -1576 48 -382 -44 -814
-244 -1145 -350 -581 -974 -920 -1640 -892 -832 35 -1539 630 -1711 1442 -67
320 -50 642 52 952 177 542 617 982 1159 1161 220 72 357 92 615 87 161 -3
216 -8 316 -29z"/>
<path d="M2850 4021 c-5 -11 -10 -84 -10 -165 0 -138 1 -146 22 -160 32 -23
54 -20 77 10 19 24 21 40 21 158 0 153 -9 176 -65 176 -24 0 -38 -6 -45 -19z"/>
<path d="M2045 3805 c-14 -13 -25 -30 -25 -37 0 -7 33 -69 73 -138 68 -116 75
-125 106 -128 81 -8 81 46 0 186 -85 148 -107 165 -154 117z"/>
<path d="M3683 3815 c-26 -18 -153 -237 -153 -263 0 -45 72 -69 102 -34 28 32
138 231 138 250 0 44 -52 72 -87 47z"/>
<path d="M1447 3212 c-10 -10 -17 -31 -17 -45 0 -23 12 -35 68 -71 99 -64 182
-106 208 -106 30 0 58 41 50 74 -4 17 -38 42 -131 95 -69 39 -133 71 -143 71
-11 0 -26 -8 -35 -18z"/>
<path d="M4180 3164 c-63 -36 -120 -70 -127 -76 -33 -27 -2 -98 43 -98 28 0
235 122 257 152 16 22 17 29 7 49 -29 54 -42 52 -180 -27z"/>
<path d="M1994 2885 c-31 -48 -17 -63 173 -175 98 -57 252 -146 343 -197 l165
-93 1 -58 c3 -138 87 -224 220 -225 127 -1 214 80 222 207 l4 63 170 84 c94
46 177 90 184 97 24 23 17 70 -12 89 -26 17 -28 16 -211 -76 -185 -92 -186
-92 -207 -73 -78 72 -217 75 -296 7 -13 -11 -67 17 -350 180 -205 119 -346
194 -362 195 -19 0 -33 -8 -44 -25z m979 -455 c49 -54 32 -143 -33 -170 -66
-27 -138 15 -146 87 -6 49 12 83 56 106 46 23 87 15 123 -23z"/>
<path d="M1243 2410 c-30 -12 -39 -54 -19 -85 16 -25 18 -25 165 -25 131 0
150 2 164 18 23 25 21 58 -3 82 -18 18 -33 20 -152 19 -73 0 -143 -4 -155 -9z"/>
<path d="M4254 2410 c-29 -12 -39 -56 -19 -86 15 -24 18 -24 165 -24 164 0
180 5 180 60 0 51 -27 60 -175 59 -71 0 -140 -4 -151 -9z"/>
<path d="M1569 1657 c-58 -34 -114 -68 -123 -76 -25 -21 -20 -68 9 -87 24 -16
28 -16 63 0 82 37 218 124 231 148 13 23 13 29 -2 52 -26 40 -60 33 -178 -37z"/>
<path d="M4056 1701 c-10 -11 -16 -31 -14 -47 2 -23 17 -37 83 -76 135 -82
180 -101 204 -89 27 15 41 43 34 69 -6 25 -233 162 -268 162 -12 0 -30 -9 -39
-19z"/>
<path d="M2178 1210 c-23 -14 -150 -239 -150 -267 0 -33 20 -53 53 -53 37 0
47 11 118 139 66 119 73 151 39 175 -26 18 -36 19 -60 6z"/>
<path d="M3570 1213 c-21 -7 -40 -33 -40 -54 0 -17 111 -220 138 -251 31 -36
102 -11 102 37 0 19 -123 236 -147 261 -15 15 -27 16 -53 7z"/>
<path d="M2862 1014 c-21 -14 -22 -22 -22 -163 0 -133 2 -150 19 -165 11 -10
31 -16 47 -14 47 5 55 35 52 191 -3 124 -5 140 -22 153 -25 18 -46 18 -74 -2z"/>
</g>
</svg>
