<?xml version="1.0" standalone="no"?>
<!DOCTYPE svg PUBLIC "-//W3C//DTD SVG 20010904//EN"
 "http://www.w3.org/TR/2001/REC-SVG-20010904/DTD/svg10.dtd">
<svg version="1.0" xmlns="http://www.w3.org/2000/svg"
 width="64.000000pt" height="46.000000pt" viewBox="0 0 512.000000 512.000000"
 preserveAspectRatio="xMidYMid meet">

<g transform="translate(0.000000,512.000000) scale(0.100000,-0.100000)"
fill="#ffffff" stroke="none">
<path d="M2162 5029 c-55 -11 -98 -41 -121 -87 -18 -35 -23 -38 -87 -50 -101
-18 -224 -82 -294 -152 -98 -98 -130 -192 -130 -382 l0 -98 -545 0 c-358 0
-562 -4 -597 -11 -183 -38 -334 -185 -373 -365 -14 -61 -16 -134 -13 -500 4
-424 5 -430 30 -525 35 -127 86 -233 164 -334 l64 -84 2 -1023 3 -1023 32 -67
c41 -88 113 -160 201 -201 l67 -32 1995 0 1995 0 59 28 c117 54 190 137 227
258 18 58 19 108 19 1068 l0 1008 21 19 c33 29 103 132 137 199 43 87 71 176
87 285 19 119 21 829 4 912 -39 189 -196 343 -383 377 -38 7 -254 11 -596 11
l-537 0 -6 133 c-6 151 -21 206 -76 287 -70 103 -229 198 -360 216 -46 6 -53
10 -68 41 -22 47 -70 81 -133 93 -63 12 -726 12 -788 -1z m799 -128 c28 -23
32 -83 6 -109 -16 -15 -52 -17 -380 -20 -396 -3 -427 0 -446 46 -15 36 0 79
31 92 13 5 190 9 394 9 349 1 373 0 395 -18z m-913 -161 c13 -24 38 -48 62
-60 37 -19 58 -20 450 -20 392 0 413 1 450 20 24 12 48 36 62 61 23 40 24 41
69 35 65 -7 169 -56 221 -105 25 -22 57 -64 73 -93 27 -49 30 -62 33 -185 l4
-133 -912 0 -912 0 4 133 c4 112 8 138 27 175 47 90 115 147 225 188 92 35
116 32 144 -16z m2738 -633 c73 -34 142 -101 181 -177 l28 -55 0 -460 0 -460
-28 -90 c-128 -412 -526 -651 -1231 -741 -71 -9 -247 -18 -423 -21 l-303 -6 0
55 c0 76 -32 134 -95 173 l-48 30 -307 0 -307 0 -48 -30 c-62 -39 -95 -97 -95
-172 l0 -53 -227 0 c-351 0 -624 30 -879 95 -301 77 -504 184 -659 347 -93 98
-146 182 -180 291 -42 132 -46 189 -43 622 l3 410 28 60 c46 99 124 167 232
201 32 10 473 12 2190 11 l2150 -2 61 -28z m-4191 -1894 c123 -62 214 -95 364
-133 246 -62 484 -89 881 -99 l265 -6 5 -60 c6 -70 30 -115 83 -159 l39 -31
314 -3 c294 -3 316 -2 351 17 74 38 113 101 113 186 l0 55 212 0 c639 0 1125
105 1447 314 l71 46 0 -948 c0 -1052 3 -1000 -66 -1081 -20 -23 -57 -53 -82
-69 l-47 -27 -397 -3 -398 -3 0 104 0 103 91 64 c49 35 93 68 97 74 4 6 9 150
12 321 l5 309 35 10 c48 14 126 93 139 142 14 51 14 137 -1 185 -41 140 -233
204 -365 123 -66 -41 -104 -105 -110 -186 -10 -120 38 -211 133 -255 l54 -24
0 -278 0 -277 -90 -62 c-49 -34 -95 -72 -102 -85 -8 -15 -11 -63 -10 -144 l2
-123 -175 0 -175 0 0 260 0 259 49 21 c92 40 142 123 142 234 0 155 -114 258
-269 243 -135 -12 -220 -106 -222 -243 0 -107 65 -210 149 -235 l41 -12 0
-264 0 -263 -355 0 -355 0 0 108 0 107 75 49 c42 27 87 62 100 78 l25 30 0
298 0 299 43 19 c52 23 110 86 128 138 18 53 16 144 -5 198 -21 55 -88 118
-144 134 -121 36 -241 -8 -296 -108 -72 -133 -28 -293 98 -355 l56 -27 0 -278
0 -277 -89 -62 c-48 -34 -93 -73 -100 -87 -6 -14 -11 -76 -11 -144 l0 -120
-185 0 -185 0 0 263 0 263 35 13 c115 41 174 186 133 325 -16 54 -90 128 -144
144 -143 42 -281 -24 -325 -155 -19 -58 -7 -163 25 -217 28 -48 81 -90 129
-101 l27 -7 0 -264 0 -264 -190 0 -190 0 3 123 c3 149 2 150 -117 232 l-86 60
0 277 0 277 54 24 c181 83 183 369 2 453 -128 60 -278 9 -336 -113 -29 -62
-31 -161 -3 -223 24 -54 92 -118 133 -127 l30 -5 0 -292 c0 -350 -5 -333 123
-420 l87 -60 0 -103 0 -103 -378 0 c-440 0 -444 1 -528 84 -90 90 -84 17 -84
1098 l0 949 58 -39 c31 -22 102 -62 157 -89z m2250 17 c41 -15 55 -64 55 -187
0 -124 -12 -178 -43 -195 -17 -10 -91 -12 -301 -11 l-280 2 -25 26 c-24 23
-26 34 -30 121 -4 135 5 201 34 230 l24 24 270 0 c154 0 281 -4 296 -10z
m-1555 -685 c59 -30 79 -128 40 -192 -21 -36 -43 -50 -80 -53 -55 -5 -80 1
-109 26 -93 78 -43 234 75 234 25 0 58 -7 74 -15z m1406 -18 c28 -26 37 -42
41 -78 10 -90 -45 -153 -133 -151 -75 1 -124 53 -124 132 0 83 47 129 133 130
40 0 53 -5 83 -33z m1278 12 c118 -93 28 -277 -115 -239 -79 22 -113 106 -77
194 25 63 136 89 192 45z m-1969 -462 c85 -85 31 -227 -87 -227 -79 0 -128 50
-128 130 0 83 47 129 134 130 41 0 53 -5 81 -33z m1309 12 c35 -27 56 -70 56
-112 0 -40 -35 -96 -70 -114 -55 -28 -146 -7 -171 38 -36 67 -27 134 23 181
25 23 39 28 83 28 38 0 60 -6 79 -21z"/>
<path d="M757 3732 c-25 -27 -21 -69 6 -87 21 -13 220 -15 1806 -13 1752 3
1783 3 1797 22 19 27 18 60 -4 79 -17 16 -157 17 -1804 17 -1716 0 -1786 -1
-1801 -18z"/>
<path d="M762 3294 c-27 -19 -29 -64 -4 -87 17 -16 157 -17 1805 -17 l1786 0
15 22 c21 30 20 54 -4 78 -20 20 -33 20 -1798 20 -1593 0 -1780 -2 -1800 -16z"/>
<path d="M757 2842 c-24 -26 -21 -68 5 -86 20 -14 207 -16 1800 -16 1765 0
1778 0 1798 20 24 24 25 48 4 78 l-15 22 -1788 0 c-1719 0 -1789 -1 -1804 -18z"/>
</g>
</svg>
