<?xml version="1.0" standalone="no"?>
<!DOCTYPE svg PUBLIC "-//W3C//DTD SVG 20010904//EN"
 "http://www.w3.org/TR/2001/REC-SVG-20010904/DTD/svg10.dtd">
<svg version="1.0" xmlns="http://www.w3.org/2000/svg"
 width="44.000000pt" height="56.000000pt" viewBox="0 0 512.000000 512.000000"
 preserveAspectRatio="xMidYMid meet">

<g transform="translate(0.000000,512.000000) scale(0.100000,-0.100000)"
fill="#ffffff" stroke="none">
<path d="M2443 5106 c-123 -40 -213 -154 -213 -271 0 -49 -1 -51 -55 -92 -98
-76 -229 -258 -325 -454 l-43 -86 -101 33 c-167 54 -294 76 -441 77 -149 1
-220 -14 -331 -68 -131 -64 -220 -178 -260 -335 -18 -70 -24 -248 -12 -335 l8
-50 -45 -30 c-82 -54 -124 -136 -125 -242 -1 -175 126 -307 295 -308 l72 0 59
-114 c32 -63 97 -173 143 -245 46 -72 85 -136 88 -142 2 -6 -29 -63 -70 -125
-318 -488 -481 -992 -423 -1307 29 -162 115 -294 235 -362 43 -25 63 -42 66
-60 27 -127 77 -200 169 -247 42 -22 65 -27 131 -27 91 -1 145 19 208 73 42
37 97 141 97 183 0 16 6 30 13 32 6 3 58 19 114 37 57 18 104 31 105 28 2 -2
23 -44 47 -93 97 -195 252 -388 379 -473 189 -125 414 -128 594 -7 l52 35 40
-18 c61 -27 197 -25 253 5 176 93 226 310 108 465 -30 39 -34 50 -25 67 14 25
14 25 107 -6 221 -74 457 -101 613 -70 212 43 342 155 407 351 24 72 27 95 27
235 1 126 -3 174 -22 257 l-23 101 54 54 c121 120 118 309 -7 434 -65 64 -129
88 -222 82 l-65 -4 -31 55 c-17 31 -67 111 -110 177 l-78 121 79 124 c102 160
180 302 245 442 28 61 55 117 59 123 3 6 35 13 70 16 108 9 188 66 236 168 35
75 36 192 3 262 -29 57 -91 120 -143 143 -34 16 -39 22 -39 51 0 135 -68 303
-160 393 -112 111 -244 156 -450 155 -154 -2 -267 -22 -439 -80 -64 -21 -107
-31 -109 -25 -2 6 -26 55 -54 108 -82 162 -172 290 -268 384 -83 82 -87 88
-94 140 -14 111 -85 208 -184 251 -58 26 -154 32 -209 14z m173 -125 c100 -46
131 -187 62 -284 -72 -101 -253 -84 -308 29 -36 72 -24 162 28 218 54 57 141
72 218 37z m-295 -384 c124 -121 314 -115 436 12 l43 45 71 -69 c81 -80 171
-209 236 -338 24 -49 43 -90 41 -92 -2 -1 -50 -25 -108 -52 -58 -28 -145 -73
-194 -101 -49 -29 -90 -52 -91 -52 -2 0 -26 15 -53 34 -61 41 -150 60 -220 46
-63 -12 -80 -18 -130 -52 l-42 -29 -98 55 c-53 30 -141 76 -194 102 -54 27
-98 53 -98 59 0 19 82 170 138 255 51 77 185 230 201 230 4 0 32 -24 62 -53z
m-860 -423 c46 -8 132 -31 190 -50 l105 -34 -57 -172 c-97 -291 -152 -556
-186 -887 l-17 -166 -76 -90 c-41 -49 -99 -123 -129 -163 l-54 -73 -29 43
c-52 78 -125 201 -181 307 l-55 103 39 35 c122 111 124 317 4 438 -50 49 -127
85 -187 85 l-46 0 -8 66 c-10 99 1 240 24 306 53 148 165 237 335 268 67 12
222 4 328 -16z m2491 12 c131 -28 235 -102 287 -204 25 -48 51 -152 51 -202 0
-34 -2 -36 -50 -47 -234 -56 -306 -359 -124 -521 l53 -48 -48 -104 c-92 -200
-287 -529 -303 -510 -3 3 -32 41 -65 85 -33 44 -90 116 -127 160 -57 69 -66
85 -66 120 0 63 -28 286 -55 443 -35 199 -78 370 -141 561 -30 90 -51 168 -47
172 23 21 276 88 388 102 70 9 185 6 247 -7z m-1944 -210 c198 -99 241 -127
231 -151 -12 -31 -10 -158 3 -195 10 -30 9 -35 -13 -53 -120 -96 -302 -260
-437 -395 -159 -158 -162 -161 -157 -125 44 333 90 558 154 763 58 182 72 220
82 220 5 0 67 -29 137 -64z m1214 3 c93 -268 171 -615 204 -901 l6 -58 -173
173 c-148 148 -320 304 -421 383 l-26 20 15 59 c12 48 13 72 4 125 -10 62 -9
66 12 82 36 28 338 179 350 175 6 -2 19 -28 29 -58z m-630 -69 c46 -13 105
-77 114 -125 12 -63 -1 -131 -31 -171 -28 -36 -93 -73 -130 -74 -73 0 -164 62
-186 127 -6 19 -9 59 -7 88 10 117 119 188 240 155z m1795 -295 c50 -21 72
-42 94 -90 37 -80 20 -178 -40 -228 -142 -119 -350 20 -301 202 27 103 146
158 247 116z m-2038 -129 c6 -8 35 -24 64 -37 96 -42 216 -25 309 43 14 10 34
-3 135 -87 153 -127 563 -538 586 -587 16 -34 17 -71 15 -396 l-3 -359 -70
-79 c-111 -125 -353 -362 -490 -480 -156 -133 -346 -283 -361 -284 -14 0 -184
128 -184 139 0 5 7 25 15 44 20 48 19 142 -2 202 -11 33 -35 68 -72 106 -100
101 -224 125 -342 66 l-54 -27 -73 77 c-193 207 -205 222 -213 271 -9 57 -12
575 -3 660 l7 61 131 142 c72 79 187 195 256 258 142 131 317 281 329 281 5 0
14 -6 20 -14z m-1472 -67 c61 -23 113 -100 113 -169 0 -81 -76 -171 -156 -186
-151 -28 -264 134 -191 276 31 63 76 90 148 90 32 0 70 -5 86 -11z m611 -1102
l-3 -112 -87 114 c-49 63 -85 118 -81 125 12 20 126 170 147 194 l21 24 3
-117 c1 -64 1 -166 0 -228z m2221 181 c43 -58 43 -58 26 -85 -22 -34 -147
-193 -152 -193 -1 0 -3 99 -3 221 l0 221 43 -54 c24 -29 63 -79 86 -110z
m-2386 -276 c47 -60 105 -132 130 -161 42 -49 45 -56 51 -129 31 -352 100
-704 197 -996 39 -117 47 -151 37 -158 -12 -7 -169 -58 -181 -58 -3 0 -7 10
-11 23 -9 39 -85 116 -140 144 -136 69 -319 20 -396 -106 -14 -23 -30 -41 -37
-41 -22 0 -119 98 -146 147 -142 261 -17 758 332 1320 42 68 77 123 77 123 1
0 40 -49 87 -108z m2565 16 c33 -51 74 -119 92 -151 l32 -57 -37 -41 c-52 -58
-77 -120 -78 -193 -3 -170 117 -300 289 -314 l61 -4 17 -72 c40 -170 40 -345
1 -456 -93 -263 -387 -337 -826 -209 -58 17 -111 34 -118 38 -9 6 -1 40 33
140 86 250 155 571 191 881 8 74 15 150 15 168 0 27 16 53 83 135 46 56 105
130 131 165 26 34 49 62 51 62 1 0 30 -42 63 -92z m399 -289 c124 -60 126
-261 3 -326 -49 -26 -114 -30 -163 -9 -61 25 -117 111 -117 179 0 10 7 34 15
55 46 109 157 152 262 101z m-2493 -326 c-28 -73 -26 -173 7 -244 75 -159 254
-223 412 -146 33 17 62 25 69 21 7 -5 43 -32 80 -60 l68 -52 -103 -65 c-194
-123 -441 -252 -458 -241 -12 7 -94 263 -128 399 -38 155 -65 291 -85 435 -9
63 -19 131 -22 150 -5 34 -4 33 87 -57 l92 -91 -19 -49z m1621 73 c-21 -148
-66 -377 -101 -506 -28 -108 -100 -328 -113 -348 -6 -11 -43 4 -162 65 -145
75 -383 215 -394 232 -2 5 41 43 97 86 162 124 363 302 529 467 92 92 155 147
158 139 1 -8 -5 -68 -14 -135z m-1268 -17 c62 -23 112 -100 113 -172 0 -69
-43 -142 -102 -173 -40 -21 -131 -18 -177 6 -121 61 -117 264 7 330 41 21 115
26 159 9z m475 -667 c111 -74 236 -146 390 -223 83 -42 138 -75 135 -82 -2 -8
-33 -12 -98 -12 -101 0 -140 -13 -209 -71 -100 -84 -135 -243 -79 -358 10 -22
19 -43 19 -48 0 -14 -84 -61 -143 -80 -117 -36 -234 -13 -354 71 -114 80 -214
207 -317 403 l-56 105 132 66 c129 63 349 191 439 255 24 17 50 29 56 27 7 -2
46 -26 85 -53z m-1262 -235 c57 -30 90 -90 90 -162 0 -72 -33 -132 -90 -162
-55 -29 -126 -30 -180 -3 -129 66 -127 272 4 331 57 26 123 24 176 -4z m1741
-212 c55 -20 77 -40 100 -90 59 -128 -24 -265 -160 -265 -94 0 -159 47 -182
132 -24 89 13 176 91 216 52 26 91 28 151 7z"/>
<path d="M2370 3031 c-108 -35 -187 -117 -205 -212 -6 -32 -13 -39 -61 -58
-68 -29 -136 -102 -160 -173 -22 -67 -15 -177 14 -234 29 -57 77 -103 136
-130 l48 -22 2 -74 c4 -161 111 -279 269 -295 102 -10 223 50 278 140 16 28
21 30 91 31 80 2 130 22 192 77 77 67 113 203 82 304 -15 49 -15 50 9 75 68
71 90 217 46 315 -59 133 -212 202 -355 161 l-57 -17 -24 29 c-13 15 -47 41
-76 57 -43 23 -68 29 -129 32 -41 1 -86 -1 -100 -6z m133 -112 c21 -5 52 -23
70 -39 l32 -28 -22 -46 c-21 -42 -26 -46 -58 -46 -19 0 -54 -7 -78 -15 -41
-14 -45 -13 -92 10 -26 14 -54 25 -62 25 -17 0 -17 14 1 48 20 39 59 72 103
87 47 17 58 18 106 4z m432 -114 c65 -37 96 -117 76 -193 -20 -73 -86 -132
-149 -132 -27 0 -30 4 -36 41 -10 61 -39 111 -96 162 -56 50 -56 59 -8 104 53
50 146 58 213 18z m-644 -152 c6 -6 1 -26 -17 -57 -34 -60 -42 -150 -20 -220
8 -27 12 -54 9 -59 -10 -16 -112 -2 -141 20 -45 34 -72 91 -72 156 0 81 35
139 100 166 29 13 126 9 141 -6z m341 -43 c58 -36 82 -79 81 -145 0 -77 -48
-149 -116 -174 -164 -62 -310 153 -194 286 62 71 149 83 229 33z m322 -292
c25 -126 -120 -233 -248 -184 -70 27 -74 39 -23 69 48 28 98 80 122 127 13 25
21 29 67 33 74 5 72 6 82 -45z m-548 -123 c26 -14 56 -25 68 -25 13 0 42 -24
75 -61 l54 -61 -20 -26 c-31 -42 -68 -64 -116 -69 -108 -12 -207 66 -207 164
0 73 13 88 92 102 4 0 28 -10 54 -24z"/>
</g>
</svg>
