<?xml version="1.0" standalone="no"?>
<!DOCTYPE svg PUBLIC "-//W3C//DTD SVG 20010904//EN"
 "http://www.w3.org/TR/2001/REC-SVG-20010904/DTD/svg10.dtd">
<svg version="1.0" xmlns="http://www.w3.org/2000/svg"
 width="64.000000pt" height="56.000000pt" viewBox="0 0 512.000000 512.000000"
 preserveAspectRatio="xMidYMid meet">

<g transform="translate(0.000000,512.000000) scale(0.100000,-0.100000)"
fill="#ffffff" stroke="none">
<path d="M587 4479 c-88 -21 -167 -82 -209 -162 l-23 -42 -5 -1385 -5 -1385
-155 -3 c-125 -2 -157 -6 -172 -19 -16 -15 -18 -37 -18 -237 0 -298 17 -362
127 -477 70 -73 154 -116 259 -129 53 -7 786 -10 2229 -8 l2150 3 57 22 c102
39 189 113 241 203 46 80 57 154 57 386 0 187 -2 214 -17 233 -17 19 -29 21
-173 23 l-155 3 -5 1385 -5 1385 -22 40 c-31 58 -90 114 -153 144 l-55 26
-1955 2 c-1123 0 -1971 -3 -1993 -8z m3984 -144 c23 -16 52 -48 63 -70 21 -40
21 -40 21 -1400 l0 -1360 -65 0 -65 0 -2 1350 -3 1350 -21 18 c-20 16 -127 17
-1939 17 -1873 0 -1918 0 -1941 -19 l-24 -19 -3 -1352 -2 -1351 -63 3 -62 3
-3 1330 c-2 971 0 1344 8 1383 14 62 68 125 122 141 21 6 771 9 1985 8 l1951
-2 43 -30z m-163 -1522 l-3 -1308 -1845 0 -1845 0 -3 1308 -2 1307 1850 0
1850 0 -2 -1307z m-2458 -1510 c0 -49 5 -105 10 -125 18 -65 70 -130 129 -160
l53 -28 418 0 418 0 53 28 c59 30 111 95 129 160 5 20 10 76 10 125 l0 87 915
0 915 0 0 -183 c0 -211 -9 -255 -68 -332 -27 -36 -57 -60 -106 -85 l-69 -35
-2197 0 -2197 0 -69 35 c-49 25 -79 49 -106 85 -59 77 -68 121 -68 332 l0 183
915 0 915 0 0 -87z m1098 -13 c-4 -112 -18 -141 -79 -172 -31 -16 -72 -18
-409 -18 -337 0 -378 2 -409 18 -62 31 -76 61 -79 173 l-4 99 492 0 492 0 -4
-100z"/>
<path d="M1880 3889 c-530 -43 -954 -488 -977 -1025 -15 -326 100 -611 334
-835 299 -286 719 -374 1112 -233 161 57 295 147 423 283 l76 81 205 0 204 0
60 -60 60 -60 249 0 249 0 20 -37 c30 -57 86 -85 160 -81 102 6 164 73 165
177 0 106 -70 176 -176 176 -70 0 -122 -28 -151 -82 l-18 -33 -224 0 -224 0
-63 60 -62 60 -187 0 c-146 0 -186 3 -182 12 3 7 15 37 27 66 l23 52 306 0
306 0 20 -38 c24 -45 91 -82 149 -82 56 0 121 34 148 78 32 52 32 152 0 204
-44 70 -145 97 -228 59 -39 -18 -84 -66 -84 -90 0 -8 -85 -11 -285 -11 -242 0
-285 2 -285 15 0 7 5 37 11 65 l11 50 121 0 c77 1 130 5 144 13 12 7 40 33 63
60 l42 47 229 0 c146 0 229 -4 229 -10 0 -25 72 -88 115 -100 153 -43 274 107
206 256 -30 65 -72 89 -157 89 -61 0 -75 -4 -106 -27 -19 -15 -41 -41 -48 -57
l-12 -31 -251 0 -250 0 -60 -60 -60 -60 -99 0 -98 0 0 68 c-1 61 -17 174 -35
245 l-7 27 284 0 285 0 24 -37 c13 -20 36 -45 50 -56 53 -39 154 -39 207 0 37
26 72 99 72 148 0 54 -37 124 -79 152 -26 18 -48 23 -96 23 -71 0 -116 -23
-150 -77 l-20 -32 -311 -1 -310 0 -22 45 c-12 25 -22 48 -22 50 0 3 84 5 186
5 l186 0 67 65 68 65 219 0 219 0 20 -37 c31 -57 66 -77 143 -81 57 -3 72 0
101 20 53 36 74 71 79 131 6 71 -11 119 -53 156 -85 74 -210 57 -270 -37 l-20
-31 -240 -1 c-271 0 -260 2 -335 -83 l-42 -47 -207 0 -206 0 -40 51 c-47 59
-158 159 -230 204 -214 137 -443 194 -695 174z m298 -134 c190 -40 342 -124
483 -264 125 -126 205 -267 257 -454 26 -95 23 -365 -6 -469 -76 -277 -270
-509 -524 -628 -153 -71 -219 -85 -413 -84 -156 0 -177 2 -259 28 -321 98
-567 343 -662 662 -36 120 -45 329 -19 455 93 463 517 796 983 773 51 -2 123
-11 160 -19z m1912 -185 c11 -11 20 -29 20 -40 0 -24 -42 -70 -63 -70 -27 0
-59 35 -59 63 0 59 62 87 102 47z m-285 -355 c14 -13 25 -31 25 -40 0 -9 -11
-27 -25 -40 -13 -14 -31 -25 -40 -25 -9 0 -27 11 -40 25 -14 13 -25 31 -25 40
0 9 11 27 25 40 13 14 31 25 40 25 9 0 27 -11 40 -25z m291 -340 c21 -32 11
-72 -21 -87 -65 -29 -117 41 -72 100 5 6 25 12 43 12 25 0 38 -7 50 -25z
m-278 -377 c20 -43 -2 -82 -50 -86 -28 -2 -40 2 -52 20 -9 12 -16 29 -16 38 0
9 7 26 16 38 24 34 84 28 102 -10z m272 -358 c24 -24 25 -48 4 -78 -23 -34
-84 -28 -102 10 -30 64 48 118 98 68z"/>
<path d="M1820 3616 c-201 -42 -400 -173 -513 -337 -117 -172 -168 -398 -133
-597 57 -327 285 -578 602 -663 110 -30 297 -30 406 -1 233 63 424 221 528
437 66 137 83 212 83 360 -1 244 -85 432 -269 604 -84 78 -227 157 -339 187
-82 22 -282 27 -365 10z m320 -122 c244 -57 450 -258 517 -505 12 -45 17 -99
17 -184 0 -102 -5 -132 -27 -200 -36 -110 -89 -197 -172 -281 -192 -194 -469
-259 -726 -170 -105 36 -175 82 -266 172 -67 67 -89 98 -127 175 -172 358 -36
762 318 941 128 65 321 87 466 52z"/>
<path d="M1941 3371 c-16 -16 -21 -34 -21 -74 l0 -54 -57 -29 c-72 -37 -118
-95 -133 -168 -28 -134 34 -214 222 -285 149 -57 180 -90 158 -171 -13 -48
-53 -79 -117 -88 -44 -7 -67 -5 -161 14 -37 7 -72 -16 -72 -48 0 -36 53 -76
109 -84 l51 -7 0 -46 c0 -62 22 -93 63 -89 39 4 57 35 57 100 0 45 1 47 37 59
50 16 126 94 141 145 6 23 12 66 12 95 0 109 -62 166 -267 243 -94 36 -127 68
-120 119 7 53 32 85 80 108 52 23 91 24 174 2 l65 -18 19 24 c10 13 19 30 19
38 0 24 -46 61 -91 73 -24 7 -50 14 -56 16 -8 2 -13 22 -13 52 0 55 -14 78
-52 87 -19 5 -32 1 -47 -14z"/>
</g>
</svg>
