<?xml version="1.0" encoding="utf-8"?>
<!-- Generator: Adobe Illustrator 24.1.2, SVG Export Plug-In . SVG Version: 6.00 Build 0)  -->
<svg version="1.1" id="Слой_1" xmlns="http://www.w3.org/2000/svg" xmlns:xlink="http://www.w3.org/1999/xlink" x="0px" y="0px"
	 viewBox="0 0 1920 1080" style="enable-background:new 0 0 1920 1080;" xml:space="preserve">
<style type="text/css">
	.st0{fill:#F4A800;}
	.st1{fill:none;}
	.st2{fill:url(#SVGID_1_);}
	.st3{fill:#FFFFFF;}
</style>
<g>
	<g>
		<g id="XMLID_7_">
			<g>
				<path class="st0" d="M1668.1,227.8c-0.4,1.1-2.1,6-5,14.2c-2.8,9.6-7.1,23.4-11.7,41c-4.2,18-9.6,39.3-14.9,64.8
					c-6,25.1-12,53.4-20.9,84.6c-8.5,31.1-19.8,64.4-34,99.8c-14.9,34.7-32.9,70.8-57,105.1c-23.7,34.3-53.1,66.5-85.6,95.5
					c-16.3,14.2-33.3,28.3-51.3,40.7c-8.8,6.4-18,12.7-27.6,18.4c-9.6,6.4-18.8,11.3-27.6,16.3c-38.6,22.6-81,37.2-122.1,46
					c-41.4,8.8-82.8,12.7-122.1,13.4c-78.9,1.1-151.1-9.2-212.3-21.2c-61.2-12-110.4-26.5-145.1-37.5c-34.3-11-53.8-18.8-53.8-18.8
					l2.1-6c0,0,19.5,5.7,54.5,13.4c35,7.4,84.9,17.3,145.4,23.7c60.5,6.4,131.6,9.9,206.3,1.4c37.2-4.2,75-11.3,111.5-22.6
					c36.8-11.3,71.8-27.2,103.3-48.1c8.8-5.7,17.3-11.7,24.8-17c7.8-5.7,15.2-11.3,22.6-17.7c15.2-12,29-25.5,42.8-38.9
					c26.5-27.2,49.5-57.7,70.1-87.8c20.5-30.4,39.3-60.9,55.6-91.3c17-30.1,31.1-60.2,44.9-88.1c5.3-11,9.9-20.9,14.9-31.1
					c-45.6-8.5-123.8-26.2-184.4-38.9c-66.5-12.7-143.7-25.5-226.8-27.2c-41.4-0.7-84.9,1.1-127.7,5l-17,1.4
					c-2.5,0.4-6.4,0.4-7.8,0.7l-7.1,1.1c-9.6,1.4-19.5,3.5-29,6c-19.5,4.6-38.9,11.3-58.4,18.8C879,361.9,840.8,382.4,804,405
					c-18.4,11.3-36.4,23.4-53.8,35.7c-17.7,12-35,24.4-52,37.2c-67.9,50.2-128.4,102.6-180.1,148.3c-25.8,23.4-49.2,44.6-69.7,64
					c-20.5,19.5-38.6,36.4-53.4,50.2c-27.2,26.9-43.9,42.8-46,44.6c1.4-2.5,12.4-23,33.3-55.6c11-17.7,24.8-38.6,41.4-62.3
					c16.6-23.4,35.7-49.5,58-77.1c43.9-55.6,99.1-117.8,165.2-178.3c16.6-14.9,34-29.7,52-44.6c18.4-14.2,37.5-28,57-41.4
					c39.6-26.5,82.1-51,128.8-69.4c23.4-9.2,47.4-16.6,72.5-21.6c12.4-2.1,25.5-4.2,38.2-5.3l9.6-0.7l9.2-0.4l17-0.7
					c47.1-1.4,92.4,0.4,136.6,3.2c88.1,5.7,169.5,17.3,238.1,31.1c68.3,12.7,124.2,25.8,161,29.7c18.4,2.1,31.8,2.5,40,2.1
					c4.6-0.4,9.9-0.7,13.8-1.4c3.9-6.4,7.4-12.7,11.3-18.4c9.9-15.9,19.5-27.6,25.8-35.4C1663.5,232.4,1667.1,228.5,1668.1,227.8z"
					/>
			</g>
		</g>
		<line class="st1" x1="1270.4" y1="503.1" x2="1270.4" y2="503.1"/>
		<line class="st1" x1="1272.5" y1="511.5" x2="1272.5" y2="511.5"/>
	</g>
	<linearGradient id="SVGID_1_" gradientUnits="userSpaceOnUse" x1="1270.1516" y1="558.4716" x2="1270.1516" y2="558.4716">
		<stop  offset="0" style="stop-color:#424242"/>
		<stop  offset="1" style="stop-color:#000000"/>
	</linearGradient>
	<path class="st2" d="M1270.2,558.5"/>
</g>
<path class="st3" d="M1202.7,597.1c-1.3,4.7-2.9,9.3-4.7,13.8c-6,14.9-14.2,27.6-24.8,38.9c-10.3,11-22.3,19.8-36.1,26.2
	c-13.4,6.4-28.3,9.6-43.9,9.6l-1.4,0.4c-15.6,0-30.4-3.2-43.9-9.6c-13.8-6.4-25.8-15.2-36.1-26.2c-10.3-11-18.8-24.1-24.8-38.9
	c-6.4-14.5-9.2-30.1-9.2-46.7s2.8-32.6,8.8-47.4c6-14.9,13.8-28,23.7-38.9c10.3-11,21.9-19.8,35.4-26.5c13.8-6.7,28-9.9,43.5-9.9
	l6.4-0.4c15.2,0,29.7,3.5,43.5,9.9c13.4,6.7,25.5,15.6,35.4,26.5c9.9,11,17.7,24.1,23.7,38.9c0.7,2,1.5,4,2.1,6l48.1-48.1
	c-8.2-15.8-18.2-30.1-30.4-42.5c-15.6-16.3-34.3-29-55.6-38.2c-21.2-9.2-44.2-13.8-69-13.4l-1.4,0.4c-24.8-0.4-47.8,3.9-69,13.4
	c-21.2,9.2-40,21.9-55.9,38.2c-15.6,16.3-28,35.4-37.5,57.7c-9.2,22.3-13.8,46.4-13.8,72.2c0,25.8,4.2,49.5,13.4,72.2
	c8.8,22.6,20.9,42.1,36.4,58.4c15.6,16.6,34,29.7,55.2,39.3c21.2,9.6,43.9,14.5,68.3,14.5l7.4-0.4c24.4,0,47.1-5,68.3-14.5
	c21.2-9.6,39.6-22.6,55.2-39.3c15.6-16.6,27.6-36.1,36.4-58.4c4.7-12,8.2-24.3,10.4-37L1202.7,597.1z"/>
<path class="st0" d="M1206.2,551.2l-78.3,45.2l-1.5,0.4l74-74c0.6,1.9,1.2,3.8,1.8,5.7c1.8,6.7,3.2,14.2,3.9,21.6
	C1206.2,550.5,1206.2,550.8,1206.2,551.2z"/>
<path class="st0" d="M1264.5,517.6l-58.3,33.7c0-0.4-0.1-0.7-0.1-1.1c-0.7-7.4-2.1-14.9-3.9-21.6c-0.5-1.9-1.1-3.8-1.8-5.7
	l48.1-48.1c1.4,2.7,2.7,5.3,4,8.1c1.1,2.5,2.1,4.6,3.2,7.1c3.5,8.1,6.4,17,8.5,25.8C1264.3,516.4,1264.4,517,1264.5,517.6z"/>
<path class="st1" d="M1372,315.9l-33.2,123.4l-74.2,42.9c-0.1-0.6-0.2-1.2-0.4-1.8c-2.1-8.8-5-17.7-8.5-25.8
	c-1.1-2.5-2.1-4.6-3.2-7.1c-1.3-2.8-2.6-5.4-4-8.1L1372,315.9z"/>
<path class="st3" d="M1270.2,559v3.2c0,12.1-1,23.8-3,35.1l-64.5-0.1c2-7.1,3.2-14.4,3.4-21.8l64-17.2
	C1270.1,558.4,1270.2,558.7,1270.2,559z"/>
<path class="st3" d="M1270.1,558.1l-64,17.2v-0.1c0.4-3.5,0.7-7.4,0.7-11c0-4.2,0-8.8-0.6-13.1l58.3-33.7
	C1267.4,530.6,1269.4,543.9,1270.1,558.1z"/>
<path class="st3" d="M1206.8,564.3c0,3.5-0.4,7.4-0.7,11v0.1l-78.1,21.1l78.3-45.2C1206.8,555.5,1206.8,560,1206.8,564.3z"/>
<path class="st1" d="M1206.1,540c-0.2,7.4-1.5,14.7-3.4,21.8l-75.8-0.1l1.1-0.6L1206.1,540z"/>
<path class="st1" d="M1338.7,439.3l-18.9,70l-49.8,13.4c-0.7-14.3-2.7-27.6-5.6-40.6L1338.7,439.3z"/>
<path class="st1" d="M1429.5,386.9L1328.9,562l-61.7-0.1c2-11.3,3-23,3-35.1v-3.2c0-0.3,0-0.6,0-0.8l49.8-13.4l18.9-70L1429.5,386.9
	z"/>
<g>
	<path class="st3" d="M447.3,389.1h-49.2c-3.9,0-5.7,1.8-5.7,6v241.7L220.2,397.3c-4.2-5.3-9.6-8.1-15.9-8.1h-45.6
		c-1.8,0-3.2,0.7-4.2,1.8c-1.1,1.1-1.8,2.5-1.8,4.2v346.1c0,1.8,0.4,3.2,1.4,4.6c1.4,1.1,2.5,1.8,4.2,1.8h49.2c4.2,0,6.4-1.8,6.4-6
		V499.9l172,239.2c4.2,5.3,9.6,8.1,15.9,8.1h45.6c3.9,0,5.7-1.8,5.7-6V395.1C453,391.2,451.2,389.1,447.3,389.1z"/>
	<path class="st3" d="M730.8,575.9c-8.1-8.8-17.7-16.3-29.4-22.6c-11.7-6.4-25.1-11-40.3-13.8l-47.1-9.2c-12-2.5-21.2-7.4-27.2-14.2
		c-6-6.7-9.2-14.9-9.2-24.4c0-6,1.4-11.3,3.9-16.6c2.5-5.3,6-9.9,10.6-13.8c4.6-3.9,9.9-7.1,16.6-9.6c6.7-2.5,13.8-3.5,21.9-3.5
		c6.7,0,13.4,0.7,19.8,2.5c6.4,1.8,12.4,3.9,18,6.7c5.7,2.8,10.6,6,14.9,9.2c4.2,3.5,7.8,6.7,10.6,9.9c1.4,1.8,2.8,2.5,4.6,2.5
		c1.8,0,3.2-0.7,4.6-2.1l32.9-35.4c2.5-2.1,2.5-5,0.4-7.8c-9.2-11.7-23-22.3-41.4-31.1c-18-8.8-40-13.4-64.8-13.4
		c-15.9,0-31.1,2.8-45.3,8.5c-14.5,5.7-26.9,13.1-37.5,22.6s-19.1,20.9-25.5,34c-6,12.7-9.2,27.2-9.2,42.5c0,25.8,7.8,47.4,24.1,64
		c15.9,17,37.2,28.3,64,34l47.1,9.9c13.4,2.5,23.7,7.4,30.4,14.9c6.7,7.4,10.3,15.9,10.3,25.8c0,12.4-4.6,22.6-13.8,30.4
		c-9.2,7.8-22.6,11.7-40.3,11.7c-8.1,0-15.9-1.4-23.4-3.5c-7.4-2.5-14.2-5.3-20.5-8.8s-12.4-7.8-17.7-12
		c-5.3-4.6-10.3-8.8-14.9-13.1c-1.4-1.4-2.8-1.8-4.6-1.8c-1.4,0.4-2.8,1.1-3.9,2.8l-30.1,39.6c-2.1,2.8-2.1,5.7,0,7.8
		c4.6,5.7,10.6,11.3,18,17c7.1,5.7,15.6,11,25.5,15.6c9.6,5,20.5,8.8,32.6,11.7c12,2.8,24.8,4.2,38.6,4.2c19.5,0,36.8-3.2,51.7-9.2
		c15.2-6.4,28-14.2,38.2-24.4c10.3-10.3,18-21.6,23.4-34.3c5.3-12.7,7.8-25.5,7.8-38.6c0-12.4-2.1-23.7-6.4-34.7
		S738.5,584.8,730.8,575.9z"/>
	<path class="st3" d="M1576.1,389.1h-49.5c-1.8,0-3.2,0.7-4.2,1.8c-1.1,1.1-1.8,2.5-1.8,4.2V536h-137.3V395.1c0-3.9-2.1-6-6.4-6
		h-49.2c-1.8,0-3.2,0.7-4.2,1.8c-1.1,1.1-1.8,2.5-1.8,4.2v346.1c0,1.8,0.4,3.2,1.4,4.2c1.4,1.1,2.5,1.8,4.2,1.8h49.2
		c4.2,0,6.4-1.8,6.4-6V601.1h137.3v140.1c0,1.8,0.7,3.2,1.8,4.2c1.4,1.1,2.5,1.8,4.2,1.8h49.9c1.8,0,3.2-0.7,4.2-1.8
		c1.1-1.1,1.8-2.5,1.8-4.2V395.1c0-1.8-0.7-3.2-1.8-4.2C1578.9,389.8,1577.5,389.1,1576.1,389.1z"/>
	<path class="st3" d="M1898.8,447.1l-35.4-49.5c-4.2-5.3-9.6-8.1-15.9-8.1h-207.7c-1.8,0-3.2,0.7-4.2,1.8c-1.1,1.1-1.8,2.5-1.8,4.2
		v52.4c0,1.8,0.7,3.2,1.8,4.2c1.4,1.1,2.5,1.8,4.2,1.8h88.1v286.3c0,3.9,1.8,6,5.7,6h49.2c3.9,0,5.7-1.8,5.7-6V454.2h106.9
		c2.1,0,3.5-0.7,4.2-2.1C1900.2,450.3,1900.2,448.9,1898.8,447.1z"/>
	<g>
		<path class="st3" d="M83.5,510.3H27.2c-0.4,0-0.8-0.1-1.1-0.4c-0.3-0.3-0.5-0.6-0.5-1c0-0.5,0.2-0.9,0.5-1.1
			c0.3-0.3,0.7-0.4,1.1-0.4h56.3c0,0,0,0,0,0v-26.2H22v0v26c0.2,0,0.3,0,0.5,0.1l0.1,0.1c0.7,0.2,1.1,0.7,1.1,1.6l-0.1,0.5
			c-0.1,0.5-0.4,0.8-0.8,1c-0.3,0.1-0.5,0.2-0.8,0.2v4.9c0,0,0,0,0,0h43.7c0.8,0,1.3,0.4,1.5,1.1c0,0.9-0.2,1.4-0.6,1.7l-39.3,24.4
			c-0.9,0.5-1.6,0.4-2.1-0.5c-0.1-0.2-0.2-0.5-0.2-0.8c0-0.6,0.2-1,0.6-1.3l34.9-21.7H22c0,0,0,0,0,0v34.4l60.7-37.1
			c0.3-0.2,0.6-0.3,0.9-0.3L83.5,510.3C83.6,510.3,83.5,510.3,83.5,510.3z"/>
		<path class="st3" d="M74.6,616c-3,2.6-6.4,4.7-10.3,6.1c-3.9,1.5-7.9,2.2-12.1,2.2c-2.9,0-5.9-0.4-8.7-1.1
			c-2.9-0.8-5.6-1.9-8.1-3.3c-2.5-1.4-4.9-3.2-7-5.2c-2.1-2.1-3.8-4.4-5.2-7c-0.1-0.1-0.2-0.4-0.2-0.7c0-0.5,0.2-1,0.7-1.3
			c0.4-0.2,0.8-0.3,1.2-0.1c0.4,0.2,0.7,0.4,0.9,0.8c1.3,2.4,2.9,4.5,4.7,6.4c1.9,1.9,4,3.5,6.3,4.7c2.3,1.3,4.8,2.3,7.4,2.9
			c2.6,0.7,5.3,1,8,1c3.7,0,7.4-0.7,10.9-2c3.5-1.3,6.6-3.1,9.3-5.5c2.7-2.3,4.9-5.1,6.5-8.4c1.6-3.3,2.4-6.8,2.4-10.7
			s-0.8-7.4-2.4-10.7c-1.6-3.2-3.8-6-6.5-8.3c-2.7-2.3-5.8-4.2-9.3-5.5c-3.5-1.3-7.1-2-10.9-2c-3.6,0-7.1,0.6-10.5,1.8
			c-3.4,1.2-6.4,2.9-9.1,5.1c-2.7,2.2-4.9,4.8-6.6,7.9c-1.7,3.1-2.7,6.5-2.9,10.2h6.5c1,0,1.5,0.5,1.5,1.5c0,2.8,0.6,5.4,1.7,7.7
			c1.2,2.3,2.7,4.3,4.7,5.9c2,1.6,4.2,2.9,6.7,3.7c2.5,0.9,5.1,1.3,7.8,1.3c2.6,0,5.2-0.4,7.7-1.3c2.5-0.9,4.8-2.1,6.7-3.8
			c2-1.6,3.5-3.6,4.7-5.9c1.2-2.3,1.7-4.8,1.7-7.6s-0.6-5.3-1.7-7.7c-1.2-2.3-2.7-4.3-4.6-5.9s-4.2-2.9-6.7-3.8
			c-2.5-0.9-5.1-1.3-7.8-1.3c-4.4,0-8.4,1-11.9,3.1c-3.5,2.1-6,4.9-7.6,8.5c-0.1,0.4-0.4,0.6-0.8,0.8c-0.4,0.2-0.8,0.1-1.2,0
			c-0.6-0.2-0.9-0.6-0.9-1.4c0-0.2,0-0.4,0.1-0.5c0.9-2.1,2.1-3.9,3.6-5.6c1.5-1.6,3.2-3.1,5.2-4.2s4-2.1,6.3-2.7
			c2.3-0.6,4.7-1,7.2-1c3.1,0,6.1,0.5,9,1.6c2.9,1.1,5.4,2.5,7.6,4.4c2.2,1.9,4,4.2,5.3,6.8c1.3,2.7,2,5.6,2,8.8
			c0,3.2-0.7,6.2-2,8.8c-1.3,2.6-3.1,4.9-5.3,6.8c-2.2,1.9-4.8,3.4-7.6,4.4c-2.9,1-5.9,1.6-8.9,1.6c-2.9,0-5.8-0.5-8.6-1.4
			c-2.8-0.9-5.3-2.3-7.5-4.1c-2.2-1.8-4-3.9-5.4-6.3c-1.4-2.5-2.3-5.2-2.4-8.3H22v4.3c0.4-0.1,0.8-0.1,1.1,0
			c0.8,0.3,1.2,0.8,1.2,1.5c-0.2,0.7-0.6,1.2-1,1.5c-0.4,0.2-0.8,0.3-1.2,0.1H22c0,0,0,0,0,0v46.2c1-2.8,2.4-5.4,4.2-7.7
			c1.8-2.3,4-4.4,6.4-6.2c2.5-1.8,5.2-3.2,8.1-4.2c0.4-0.1,0.8-0.1,1.2,0c0.4,0.2,0.7,0.4,0.8,0.9c0,0.1,0,0.1,0,0.2s0,0.2,0,0.3
			c0,0.6-0.3,1.1-1,1.5c-2.6,0.9-5,2.2-7.2,3.8c-2.2,1.6-4.2,3.5-5.8,5.6c-1.7,2.1-2.9,4.4-3.9,6.9c-0.9,2.5-1.4,5.2-1.4,8
			c0,3.7,0.8,7.1,2.3,10.3c1.5,3.1,3.6,5.8,6.2,8.1c2.6,2.3,5.5,4.1,8.8,5.4c3.3,1.3,6.8,2.1,10.3,2.3v-5.7c0-0.4,0.2-0.8,0.5-1
			c0.3-0.3,0.7-0.4,1.1-0.4c2.6,0,5.2-0.5,7.7-1.4c2.5-0.9,4.7-2.2,6.6-3.8c1.9-1.6,3.4-3.6,4.6-5.9c1.1-2.3,1.7-4.8,1.7-7.6
			c0-3.6-1-6.9-2.9-9.9c-2-3-4.7-5.3-8.2-6.8c-0.6-0.3-0.8-0.8-0.8-1.4c0-0.2,0-0.5,0.1-0.6c0.2-0.4,0.5-0.6,0.9-0.7
			c0.4-0.1,0.8-0.1,1.2,0c3.9,1.8,7,4.5,9.3,7.9c2.4,3.4,3.5,7.3,3.5,11.5c0,3-0.6,5.8-1.8,8.4c-1.2,2.6-2.8,4.8-4.8,6.7
			c-2,1.9-4.4,3.5-7,4.6c-2.7,1.2-5.5,1.8-8.4,1.9v5.8c0,1-0.5,1.5-1.5,1.5c-4.2,0-8.2-0.7-12.1-2.1s-7.3-3.4-10.3-6
			c-3-2.6-5.4-5.7-7.2-9.2c-0.4-0.9-0.8-1.8-1.2-2.7V707h29.2v-6.7c0-0.4,0.2-0.8,0.5-1.1c0.3-0.3,0.7-0.5,1.1-0.5h25.3
			c0.4,0,0.8,0.2,1.1,0.5c0.3,0.3,0.4,0.7,0.4,1.1c0,1-0.5,1.5-1.5,1.5H54.2v6.8c0,1-0.5,1.5-1.5,1.5H22v32.2c0,1.1,0.7,2.1,1.8,2.8
			c1.1,0.7,2.5,1.1,4.2,1.1h49.2c4.2,0,6.4-1.4,6.4-3.9v-32.4c-0.1,0-0.1,0-0.2,0H61.1c-1,0-1.5-0.5-1.5-1.5c0-1,0.5-1.6,1.5-1.6
			h22.3c0.1,0,0.1,0,0.2,0v-5.1c-0.3,0.1-0.6,0.1-0.9,0h-0.1c-0.7-0.3-1.1-0.8-1.1-1.5c0-0.1,0-0.2,0-0.3c0-0.1,0-0.2,0-0.3
			c0.1-0.5,0.4-0.8,0.8-1c0.4-0.2,0.8-0.2,1.1,0v-31.6c-0.1,0.4-0.3,0.8-0.4,1.2c-1.2,3-2.8,5.8-4.9,8.3c-2.1,2.5-4.6,4.6-7.6,6.4
			c-2.9,1.8-6.2,3.1-9.7,4c-0.4,0.1-0.8,0.1-1.2-0.2c-0.3-0.2-0.6-0.6-0.7-1c0-0.4,0.1-0.7,0.2-1.1c0.2-0.4,0.4-0.6,0.9-0.6
			c2.9-0.7,5.7-1.9,8.4-3.4c2.6-1.6,4.9-3.4,6.9-5.6c2-2.2,3.5-4.7,4.6-7.4c1.1-2.7,1.7-5.7,1.7-8.8c0-2.8-0.5-5.5-1.4-8.1
			c-1-2.6-2.3-5-4-7.1c-1.7-2.2-3.8-4.1-6.2-5.7c-2.4-1.6-5.1-2.9-8-3.8c-0.7-0.2-1.1-0.7-1.1-1.5c0-0.1,0-0.1,0-0.2
			c0-0.1,0-0.2,0-0.3c0.3-0.9,1-1.2,1.9-1c3.3,1,6.2,2.5,8.9,4.3c2.7,1.8,5,4,6.9,6.4c1.9,2.4,3.4,5.1,4.4,8
			c0.1,0.2,0.1,0.5,0.2,0.7v-48.8c-0.4,1.7-1,3.3-1.8,4.9C80,610.3,77.6,613.4,74.6,616z M39.7,641.1c0.1-0.4,0.4-0.7,0.8-0.9
			c0.4-0.2,0.8-0.2,1.3-0.1c0.7,0.2,1.1,0.8,1.1,1.5c-0.2,0.7-0.5,1.1-0.9,1.4c-0.4,0.2-0.8,0.3-1.3,0.2c-0.7-0.3-1.1-0.8-1.1-1.6
			C39.6,641.4,39.6,641.2,39.7,641.1z M44.5,679.5c-2.2-0.7-4.3-1.8-6.2-3.1s-3.6-2.9-5-4.7c-1.4-1.8-2.5-3.7-3.3-5.9
			c-0.8-2.2-1.2-4.4-1.2-6.8c0-3,0.6-5.9,1.9-8.6c1.3-2.7,3-5,5.3-7c0.3-0.3,0.7-0.4,1.1-0.4c0.4,0,0.8,0.2,1.1,0.5
			c0.2,0.2,0.4,0.6,0.4,1c0,0.4-0.2,0.8-0.5,1.1c-2,1.8-3.5,3.8-4.6,6.1c-1.1,2.3-1.6,4.7-1.6,7.3c0,2.1,0.3,4,1,5.9
			c0.7,1.9,1.6,3.5,2.9,5.1c1.2,1.5,2.7,2.8,4.3,4c1.6,1.1,3.4,2,5.4,2.6c0.7,0.3,1,0.8,1,1.5C46.1,679.3,45.5,679.8,44.5,679.5z
			 M44.6,701.7H28.7c-0.4,0-0.8-0.1-1.1-0.4c-0.3-0.3-0.5-0.6-0.5-1c0-0.4,0.2-0.8,0.5-1.1c0.3-0.3,0.7-0.5,1.1-0.5h15.8
			c0.4,0,0.8,0.2,1.1,0.5c0.3,0.3,0.4,0.7,0.4,1.1C46.1,701.2,45.6,701.7,44.6,701.7z"/>
		<path class="st3" d="M83.5,552.9C83.5,552.9,83.6,552.9,83.5,552.9l0-34.3l-56.2,34.3H83.5z M52.9,544.8h26.1c1,0,1.5,0.5,1.5,1.6
			c0,1-0.5,1.5-1.5,1.5H52.9c-1,0-1.6-0.5-1.6-1.5C51.3,545.4,51.8,544.8,52.9,544.8z"/>
		<path class="st3" d="M22,555.9C22,555.9,22,555.9,22,555.9l0,28.6c0.2-0.5,0.5-1.1,0.7-1.6c1.8-3.6,4.2-6.7,7.2-9.3
			c3-2.6,6.4-4.7,10.3-6.1c3.9-1.5,7.9-2.2,12.1-2.2c4.2,0,8.2,0.7,12.1,2.2c3.9,1.5,7.3,3.5,10.3,6.1c3,2.6,5.4,5.7,7.1,9.3
			c0.8,1.6,1.4,3.2,1.8,4.8v-31.9c0,0,0,0,0,0H22z"/>
		<path class="st3" d="M83.6,398.7c0-6.4-2.1-9.6-6.4-9.6H28c-1.8,0-2.8,1.1-4.2,2.8c-1.1,1.8-1.8,4.2-1.8,6.7v55.9h61.6V398.7z"/>
	</g>
	<path class="st3" d="M865.2,398c0-6-2.1-8.8-6.4-8.8h-49.2c-1.8,0-2.8,0.7-4.2,2.5c-1.1,1.8-1.8,3.9-1.8,6.4v54.5h61.6V398z"/>
	<path class="st3" d="M804,743.7c0,1.1,0.7,2.1,1.8,2.8c1.1,0.7,2.5,1.1,4.2,1.1h49.2c4.2,0,6.4-1.4,6.4-3.9V478.3H804V743.7z"/>
</g>
</svg>
