<svg width="302" height="83" viewBox="0 0 302 83" fill="none" xmlns="http://www.w3.org/2000/svg">
<g filter="url(#filter0_d_5_2)">
<path d="M4 0.0693359H5.8457V52.9966H4V0.0693359ZM7.69141 0.0693359H13.2285V52.9966H7.69141V0.0693359ZM18.7827 0.0693359H20.6284V52.9966H18.7827V0.0693359ZM31.7026 0.0693359V52.9966H26.1655V0.0693359H31.7026ZM24.3198 0.0693359V52.9966H22.4741V0.0693359H24.3198ZM16.1851 71.7612H21.0044C21.2778 71.5334 21.5399 71.4194 21.7905 71.4194C22.1209 71.4194 22.3944 71.5334 22.6108 71.7612C22.8159 71.9663 22.9185 72.3366 22.9185 72.8721V74H12.8354V71.6416C16.7889 68.3831 19.1929 66.2754 20.0474 65.3184C20.4575 64.8398 20.6626 64.3841 20.6626 63.9512C20.6626 63.4271 20.4347 62.9486 19.979 62.5156C19.5005 62.1055 18.8796 61.9004 18.1162 61.9004C17.3415 61.9004 16.6921 62.1283 16.168 62.584C15.8831 62.8346 15.6667 63.1935 15.5186 63.6606C15.416 63.9341 15.2736 64.1449 15.0913 64.293C14.8862 64.4183 14.6641 64.481 14.4248 64.481C14.1058 64.481 13.8381 64.3727 13.6216 64.1562C13.3937 63.9512 13.2798 63.7005 13.2798 63.4043C13.2798 62.9941 13.4792 62.4587 13.8779 61.7979C14.2539 61.1712 14.835 60.6528 15.6211 60.2427C16.4072 59.8553 17.2446 59.6616 18.1333 59.6616C19.5233 59.6616 20.6683 60.0832 21.5684 60.9263C22.4684 61.7808 22.9185 62.8005 22.9185 63.9854C22.9185 64.5892 22.7874 65.1589 22.5254 65.6943C22.2633 66.207 21.6481 66.9248 20.6797 67.8477C19.9961 68.4971 18.4979 69.8016 16.1851 71.7612ZM33.5654 0.0693359H35.4111V52.9966H33.5654V0.0693359ZM37.2568 0.0693359H39.1025V52.9966H37.2568V0.0693359ZM44.6567 0.0693359H50.1938V52.9966H44.6567V0.0693359ZM52.0396 0.0693359H57.5767V52.9966H52.0396V0.0693359ZM59.4224 0.0693359H61.2681V52.9966H59.4224V0.0693359ZM52.7061 65.7798V68.2236C52.7061 69.6592 52.2845 71.0378 51.4414 72.3594C50.5983 73.6582 49.3963 74.3133 47.8354 74.3247C46.9468 74.3247 46.1891 74.131 45.5625 73.7437C44.9359 73.3677 44.3434 72.6442 43.7852 71.5732C43.2269 70.5023 42.9478 69.3857 42.9478 68.2236V65.7798C42.9478 64.367 43.3693 62.9884 44.2124 61.644C45.0441 60.3224 46.2404 59.6616 47.8013 59.6616C48.6785 59.6616 49.4362 59.8553 50.0742 60.2427C50.7008 60.6528 51.2933 61.3763 51.8516 62.4131C52.4212 63.484 52.7061 64.6063 52.7061 65.7798ZM50.4673 65.7969C50.4673 64.5892 50.1255 63.541 49.4419 62.6523C49.0545 62.151 48.5133 61.9004 47.8184 61.9004C47.1348 61.9004 46.5822 62.1738 46.1606 62.7207C45.5226 63.5524 45.2036 64.5778 45.2036 65.7969V68.2065C45.2036 69.4142 45.5397 70.4624 46.2119 71.3511C46.5879 71.8524 47.1291 72.103 47.8354 72.103C48.5076 72.103 49.0602 71.8296 49.4932 71.2827C50.1426 70.4624 50.4673 69.437 50.4673 68.2065V65.7969ZM63.1309 0.0693359H64.9766V52.9966H63.1309V0.0693359ZM66.8223 0.0693359H68.668V52.9966H66.8223V0.0693359ZM74.2222 0.0693359H79.7593V52.9966H74.2222V0.0693359ZM81.605 0.0693359H87.1421V52.9966H81.605V0.0693359ZM88.9878 0.0693359H90.8335V52.9966H88.9878V0.0693359ZM79.6909 62.2422H74.6494C74.6494 62.8232 74.5469 63.2334 74.3418 63.4727C74.1253 63.7005 73.8519 63.8145 73.5215 63.8145C73.1911 63.8145 72.9233 63.7005 72.7183 63.4727C72.5132 63.2334 72.4106 62.8232 72.4106 62.2422V60.0034H82.0493V62.2422L78.4775 72.9062C78.318 73.3506 78.1414 73.6411 77.9478 73.7778C77.7655 73.9259 77.5376 74 77.2642 74C76.9338 74 76.6603 73.8918 76.4438 73.6753C76.216 73.4702 76.1021 73.231 76.1021 72.9575C76.1021 72.8322 76.159 72.5758 76.2729 72.1885L79.6909 62.2422ZM92.6963 0.0693359H94.542V52.9966H92.6963V0.0693359ZM96.3877 0.0693359H98.2334V52.9966H96.3877V0.0693359ZM103.788 0.0693359H109.325V52.9966H103.788V0.0693359ZM111.17 0.0693359H116.708V52.9966H111.17V0.0693359ZM118.553 0.0693359H120.399V52.9966H118.553V0.0693359ZM105.001 62.2422V64.9253C105.833 64.6291 106.585 64.481 107.257 64.481C108.635 64.481 109.78 64.9481 110.692 65.8823C111.603 66.8166 112.059 68.0129 112.059 69.4712C112.059 70.9979 111.598 72.1885 110.675 73.043C109.752 73.8975 108.345 74.3247 106.454 74.3247C104.802 74.3247 103.48 74.0114 102.489 73.3848C101.919 73.0088 101.634 72.5815 101.634 72.103C101.634 71.8068 101.748 71.5448 101.976 71.3169C102.181 71.089 102.443 70.9751 102.762 70.9751C103.024 70.9751 103.298 71.1004 103.583 71.3511C103.879 71.6017 104.192 71.7783 104.522 71.8809C105.012 72.029 105.605 72.103 106.3 72.103C107.656 72.103 108.578 71.8866 109.068 71.4536C109.57 71.0321 109.82 70.3826 109.82 69.5054C109.82 68.6395 109.581 67.9559 109.103 67.4546C108.613 66.9647 107.997 66.7197 107.257 66.7197C106.448 66.7197 105.525 66.959 104.488 67.4375C104.272 67.5514 104.072 67.6084 103.89 67.6084C103.548 67.6084 103.281 67.4945 103.087 67.2666C102.87 67.0501 102.762 66.7539 102.762 66.3779V60.0034H109.752C110.299 60.0034 110.686 60.106 110.914 60.311C111.153 60.5161 111.273 60.7896 111.273 61.1313C111.273 61.4618 111.153 61.7295 110.914 61.9346C110.675 62.1396 110.282 62.2422 109.735 62.2422H105.001ZM122.262 0.0693359H124.107V52.9966H122.262V0.0693359ZM144.427 0.0693359H149.964V52.9966H144.427V0.0693359ZM133.353 0.0693359H135.199V52.9966H133.353V0.0693359ZM137.044 0.0693359H142.582V52.9966H137.044V0.0693359ZM129.645 0.0693359H131.49V52.9966H129.645V0.0693359ZM141.18 68.7363H131.883V66.7197H141.18V68.7363ZM151.827 0.0693359H153.673V52.9966H151.827V0.0693359ZM173.993 0.0693359H179.53V52.9966H173.993V0.0693359ZM162.918 0.0693359H164.764V52.9966H162.918V0.0693359ZM166.61 0.0693359H172.147V52.9966H166.61V0.0693359ZM159.21 0.0693359H161.056V52.9966H159.21V0.0693359ZM170.746 68.7363H161.449V66.7197H170.746V68.7363ZM181.393 0.0693359H183.238V52.9966H181.393V0.0693359ZM185.084 0.0693359H190.621V52.9966H185.084V0.0693359ZM196.175 0.0693359H198.021V52.9966H196.175V0.0693359ZM209.095 0.0693359V52.9966H203.558V0.0693359H209.095ZM201.712 0.0693359V52.9966H199.867V0.0693359H201.712ZM193.578 71.7612H198.397C198.67 71.5334 198.932 71.4194 199.183 71.4194C199.514 71.4194 199.787 71.5334 200.003 71.7612C200.208 71.9663 200.311 72.3366 200.311 72.8721V74H190.228V71.6416C194.181 68.3831 196.585 66.2754 197.44 65.3184C197.85 64.8398 198.055 64.3841 198.055 63.9512C198.055 63.4271 197.827 62.9486 197.372 62.5156C196.893 62.1055 196.272 61.9004 195.509 61.9004C194.734 61.9004 194.085 62.1283 193.561 62.584C193.276 62.8346 193.059 63.1935 192.911 63.6606C192.809 63.9341 192.666 64.1449 192.484 64.293C192.279 64.4183 192.057 64.481 191.817 64.481C191.498 64.481 191.231 64.3727 191.014 64.1562C190.786 63.9512 190.672 63.7005 190.672 63.4043C190.672 62.9941 190.872 62.4587 191.271 61.7979C191.646 61.1712 192.228 60.6528 193.014 60.2427C193.8 59.8553 194.637 59.6616 195.526 59.6616C196.916 59.6616 198.061 60.0832 198.961 60.9263C199.861 61.7808 200.311 62.8005 200.311 63.9854C200.311 64.5892 200.18 65.1589 199.918 65.6943C199.656 66.207 199.041 66.9248 198.072 67.8477C197.389 68.4971 195.89 69.8016 193.578 71.7612ZM210.958 0.0693359H212.804V52.9966H210.958V0.0693359ZM214.649 0.0693359H216.495V52.9966H214.649V0.0693359ZM222.049 0.0693359H227.586V52.9966H222.049V0.0693359ZM229.432 0.0693359H234.969V52.9966H229.432V0.0693359ZM236.815 0.0693359H238.661V52.9966H236.815V0.0693359ZM230.099 65.7798V68.2236C230.099 69.6592 229.677 71.0378 228.834 72.3594C227.991 73.6582 226.789 74.3133 225.228 74.3247C224.339 74.3247 223.582 74.131 222.955 73.7437C222.328 73.3677 221.736 72.6442 221.178 71.5732C220.619 70.5023 220.34 69.3857 220.34 68.2236V65.7798C220.34 64.367 220.762 62.9884 221.605 61.644C222.437 60.3224 223.633 59.6616 225.194 59.6616C226.071 59.6616 226.829 59.8553 227.467 60.2427C228.093 60.6528 228.686 61.3763 229.244 62.4131C229.814 63.484 230.099 64.6063 230.099 65.7798ZM227.86 65.7969C227.86 64.5892 227.518 63.541 226.834 62.6523C226.447 62.151 225.906 61.9004 225.211 61.9004C224.527 61.9004 223.975 62.1738 223.553 62.7207C222.915 63.5524 222.596 64.5778 222.596 65.7969V68.2065C222.596 69.4142 222.932 70.4624 223.604 71.3511C223.98 71.8524 224.522 72.103 225.228 72.103C225.9 72.103 226.453 71.8296 226.886 71.2827C227.535 70.4624 227.86 69.437 227.86 68.2065V65.7969ZM240.523 0.0693359H242.369V52.9966H240.523V0.0693359ZM244.215 0.0693359H246.061V52.9966H244.215V0.0693359ZM251.615 0.0693359H257.152V52.9966H251.615V0.0693359ZM258.998 0.0693359H264.535V52.9966H258.998V0.0693359ZM266.38 0.0693359H268.226V52.9966H266.38V0.0693359ZM257.083 62.2422H252.042C252.042 62.8232 251.939 63.2334 251.734 63.4727C251.518 63.7005 251.244 63.8145 250.914 63.8145C250.584 63.8145 250.316 63.7005 250.111 63.4727C249.906 63.2334 249.803 62.8232 249.803 62.2422V60.0034H259.442V62.2422L255.87 72.9062C255.711 73.3506 255.534 73.6411 255.34 73.7778C255.158 73.9259 254.93 74 254.657 74C254.326 74 254.053 73.8918 253.836 73.6753C253.609 73.4702 253.495 73.231 253.495 72.9575C253.495 72.8322 253.552 72.5758 253.666 72.1885L257.083 62.2422ZM270.089 0.0693359H271.935V52.9966H270.089V0.0693359ZM273.78 0.0693359H275.626V52.9966H273.78V0.0693359ZM281.18 0.0693359H286.717V52.9966H281.18V0.0693359ZM288.563 0.0693359H294.1V52.9966H288.563V0.0693359ZM295.946 0.0693359H297.792V52.9966H295.946V0.0693359ZM282.394 62.2422V64.9253C283.225 64.6291 283.977 64.481 284.649 64.481C286.028 64.481 287.173 64.9481 288.084 65.8823C288.996 66.8166 289.452 68.0129 289.452 69.4712C289.452 70.9979 288.99 72.1885 288.067 73.043C287.145 73.8975 285.737 74.3247 283.846 74.3247C282.194 74.3247 280.873 74.0114 279.881 73.3848C279.312 73.0088 279.027 72.5815 279.027 72.103C279.027 71.8068 279.141 71.5448 279.369 71.3169C279.574 71.089 279.836 70.9751 280.155 70.9751C280.417 70.9751 280.69 71.1004 280.975 71.3511C281.271 71.6017 281.585 71.7783 281.915 71.8809C282.405 72.029 282.997 72.103 283.692 72.103C285.048 72.103 285.971 71.8866 286.461 71.4536C286.962 71.0321 287.213 70.3826 287.213 69.5054C287.213 68.6395 286.974 67.9559 286.495 67.4546C286.005 66.9647 285.39 66.7197 284.649 66.7197C283.84 66.7197 282.918 66.959 281.881 67.4375C281.664 67.5514 281.465 67.6084 281.283 67.6084C280.941 67.6084 280.673 67.4945 280.479 67.2666C280.263 67.0501 280.155 66.7539 280.155 66.3779V60.0034H287.145C287.691 60.0034 288.079 60.106 288.307 60.311C288.546 60.5161 288.666 60.7896 288.666 61.1313C288.666 61.4618 288.546 61.7295 288.307 61.9346C288.067 62.1396 287.674 62.2422 287.127 62.2422H282.394Z" fill="black"/>
</g>
<defs>
<filter id="filter0_d_5_2" x="0" y="0.0693359" width="301.792" height="82.2554" filterUnits="userSpaceOnUse" color-interpolation-filters="sRGB">
<feFlood flood-opacity="0" result="BackgroundImageFix"/>
<feColorMatrix in="SourceAlpha" type="matrix" values="0 0 0 0 0 0 0 0 0 0 0 0 0 0 0 0 0 0 127 0" result="hardAlpha"/>
<feOffset dy="4"/>
<feGaussianBlur stdDeviation="2"/>
<feComposite in2="hardAlpha" operator="out"/>
<feColorMatrix type="matrix" values="0 0 0 0 0 0 0 0 0 0 0 0 0 0 0 0 0 0 0.25 0"/>
<feBlend mode="normal" in2="BackgroundImageFix" result="effect1_dropShadow_5_2"/>
<feBlend mode="normal" in="SourceGraphic" in2="effect1_dropShadow_5_2" result="shape"/>
</filter>
</defs>
</svg>
