<svg width="31" height="122" viewBox="0 0 31 122" fill="none" xmlns="http://www.w3.org/2000/svg">
<g filter="url(#filter0_d_2_23)">
<path d="M24.9831 104.786C25.3977 104.777 25.7391 104.9 26.0073 105.157C26.2753 105.405 26.414 105.736 26.4233 106.151L26.5358 111.151C26.5451 111.566 26.4216 111.911 26.1654 112.188C25.909 112.456 25.5735 112.595 25.1589 112.604L20.1201 112.718L20.0805 110.954L24.9669 110.844L24.8704 106.554L20.1363 106.66L13.6343 112.292C13.186 112.683 12.6868 112.885 12.1368 112.897L8.11342 112.988C7.69881 112.997 7.3574 112.874 7.0892 112.617C6.82081 112.352 6.68195 112.013 6.67262 111.598L6.56015 106.597C6.55083 106.183 6.67446 105.846 6.93106 105.586C7.18746 105.318 7.52297 105.179 7.93758 105.169L12.5575 105.066L12.5972 106.83L8.12956 106.93L8.22604 111.22L12.4144 111.126L18.9158 105.469C19.3476 105.095 19.8385 104.902 20.3885 104.889L24.9831 104.786ZM24.7339 93.7059C25.1485 93.6966 25.49 93.8243 25.7584 94.0892C26.0268 94.3541 26.1656 94.6938 26.1749 95.1084L26.29 100.223C26.2993 100.638 26.1758 100.979 25.9194 101.248C25.663 101.516 25.3275 101.655 24.9128 101.664L7.86735 102.047C7.45275 102.057 7.11134 101.933 6.84314 101.677C6.57493 101.42 6.43617 101.085 6.42684 100.67L6.31181 95.5552C6.30248 95.1405 6.42593 94.7949 6.68214 94.5182C6.93835 94.2416 7.27376 94.0986 7.68837 94.0893L12.3083 93.9854L12.3483 95.7623L7.88064 95.8627L7.97998 100.28L24.7209 99.9031L24.6215 95.4862L19.7351 95.5961L19.6951 93.8192L24.7339 93.7059ZM25.8832 82.1371L25.9249 83.9901L15.372 87.9228L15.0112 87.6896L14.9404 84.542L7.62973 84.7064L7.73163 89.2375L26.0336 88.8258L26.0733 90.59L6.21018 91.0368L6.06061 84.3861C6.05128 83.9715 6.17482 83.6301 6.43122 83.3619C6.68763 83.0937 7.02314 82.9549 7.43774 82.9456L14.9769 82.776C15.933 82.7545 16.4255 83.3868 16.4544 84.673C16.4573 84.7999 16.4573 84.9861 16.4543 85.2317C16.4429 85.4775 16.4384 85.6554 16.4409 85.7654C19.5798 84.5519 22.7272 83.3425 25.8832 82.1371ZM24.2263 71.1393C24.6409 71.13 24.9824 71.2578 25.2508 71.5226C25.519 71.7791 25.6578 72.1146 25.6671 72.5292L25.7922 78.0883C25.8015 78.5029 25.6779 78.8443 25.4215 79.1125C25.1651 79.3807 24.8296 79.5195 24.415 79.5288L7.36952 79.9122C6.95491 79.9215 6.61351 79.798 6.3453 79.5416C6.0771 79.2852 5.93834 78.9497 5.92901 78.535L5.80398 72.9759C5.79466 72.5613 5.9182 72.2199 6.1746 71.9517C6.43081 71.675 6.76623 71.532 7.18083 71.5227L24.2263 71.1393ZM24.1137 72.907L7.37282 73.2835L7.48215 78.1446L24.223 77.768L24.1137 72.907ZM25.4208 61.5759L25.5635 67.9219L5.70036 68.3687L5.66068 66.6045L23.9627 66.1928L23.8596 61.611L25.4208 61.5759ZM25.2238 52.8183L25.3665 59.1644L5.5034 59.6111L5.46372 57.8469L23.7657 57.4353L23.6627 52.8534L25.2238 52.8183ZM21.2788 37.199C22.3281 37.1754 23.1989 37.5029 23.8914 38.1815C24.5753 38.8518 24.929 39.7116 24.9526 40.7608L25.0548 45.3046L5.19168 45.7513L5.08949 41.2076C5.0657 40.1499 5.38455 39.2708 6.04605 38.5702C6.69909 37.8698 7.55021 37.5078 8.59943 37.4842L21.2788 37.199ZM21.1408 38.9672L8.79141 39.2449C8.13988 39.2596 7.61994 39.4787 7.23158 39.9022C6.83456 40.3175 6.64339 40.8509 6.65804 41.5025L6.71313 43.952L23.454 43.5755L23.4012 41.2275C23.3858 40.5421 23.1787 39.9923 22.78 39.5779C22.3726 39.1554 21.8262 38.9518 21.1408 38.9672ZM23.2033 25.6508C23.6179 25.6415 23.9594 25.7693 24.2278 26.0342C24.496 26.2906 24.6347 26.6261 24.6441 27.0407L24.7691 32.5998C24.7784 33.0144 24.6549 33.3558 24.3985 33.624C24.1421 33.8922 23.8066 34.031 23.3919 34.0403L6.34645 34.4237C5.93184 34.433 5.59043 34.3095 5.32223 34.0531C5.05403 33.7967 4.91527 33.4612 4.90594 33.0466L4.78091 27.4874C4.77159 27.0728 4.89513 26.7314 5.15153 26.4632C5.40774 26.1865 5.74315 26.0435 6.15776 26.0342L23.2033 25.6508ZM23.0906 27.4185L6.34975 27.795L6.45908 32.6561L23.2 32.2795L23.0906 27.4185ZM4.4101 11.0004L24.3848 13.2559L24.4171 14.6901L9.48892 17.1846C9.22681 17.199 8.83796 17.2246 8.32239 17.2616C8.59315 17.2556 8.98276 17.2637 9.4912 17.2861L24.5164 19.107L24.5487 20.5412L4.69556 23.6925L4.65617 21.941L18.9476 19.9306C19.2689 19.9149 19.7424 19.8874 20.368 19.8479C20.0466 19.8636 19.5724 19.8573 18.9453 19.8291L4.56967 18.0953L4.53571 16.5849L18.8191 14.2192C19.1403 14.195 19.6137 14.1675 20.2395 14.1364C19.918 14.1437 19.4437 14.1332 18.8166 14.105L4.44921 12.7392L4.4101 11.0004ZM24.036 0.00649465L24.0634 1.22494L9.57415 6.85879L24.1828 6.53024L24.2202 8.1929L4.35701 8.63964L4.32732 7.31966L18.5651 1.79305L4.21029 2.1159L4.17289 0.453232L24.036 0.00649465Z" fill="black"/>
</g>
<defs>
<filter id="filter0_d_2_23" x="0.172913" y="0.00535583" width="30.4456" height="121.014" filterUnits="userSpaceOnUse" color-interpolation-filters="sRGB">
<feFlood flood-opacity="0" result="BackgroundImageFix"/>
<feColorMatrix in="SourceAlpha" type="matrix" values="0 0 0 0 0 0 0 0 0 0 0 0 0 0 0 0 0 0 127 0" result="hardAlpha"/>
<feOffset dy="4"/>
<feGaussianBlur stdDeviation="2"/>
<feComposite in2="hardAlpha" operator="out"/>
<feColorMatrix type="matrix" values="0 0 0 0 0 0 0 0 0 0 0 0 0 0 0 0 0 0 0.25 0"/>
<feBlend mode="normal" in2="BackgroundImageFix" result="effect1_dropShadow_2_23"/>
<feBlend mode="normal" in="SourceGraphic" in2="effect1_dropShadow_2_23" result="shape"/>
</filter>
</defs>
</svg>
