<svg width="42" height="42" viewBox="0 0 42 42" fill="none" xmlns="http://www.w3.org/2000/svg">
<g filter="url(#filter0_d_2_52)">
<circle cx="21" cy="17" r="16" stroke="black" stroke-width="2"/>
<path d="M11.4332 12.1118H11.6422" stroke="black" stroke-width="3" stroke-linecap="round"/>
<path d="M28.9828 11.4851H29.4006" stroke="black" stroke-width="3" stroke-linecap="round"/>
<path d="M11.6582 21.9109C12.5907 21.9109 13.2336 22.9483 13.7519 23.6148C14.2079 24.201 15.0467 26.024 15.8679 26.1206C16.3627 26.1788 18.3595 27.8318 18.6744 28.2255C19.0001 28.6326 20.5741 29.1275 21.3807 29.1275C23.6903 29.1275 25.0839 28.0837 26.9937 27.0227C27.4988 26.742 27.9825 26.4125 28.3858 26.0092C28.8682 25.5268 28.7025 25.0571 28.9426 24.5169C29.3716 23.5518 29.9004 22.1603 29.9004 21.109" stroke="black" stroke-width="3" stroke-linecap="round"/>
<path d="M13.2619 8.88074C12.5102 9.03108 11.7685 10.3067 11.6471 10.9745C11.5328 11.6029 10.6901 12.039 10.6559 12.6895C10.6158 13.4517 10.8867 14.4482 10.4554 15.0951" stroke="black" stroke-width="3" stroke-linecap="round"/>
<path d="M7.84937 9.6825C8.43037 9.6825 9.36012 10.3444 9.5533 10.8853C9.88276 11.8077 11.0136 12.2321 11.5245 13.0681C11.8054 13.5277 12.4789 13.8647 12.9055 14.2486C13.3061 14.6091 14.6651 13.9783 14.6651 14.8945" stroke="black" stroke-width="3" stroke-linecap="round"/>
<path d="M32.3059 9.48206C30.9552 9.48206 29.898 10.3198 28.7867 11.0078C27.9484 11.5268 26.5114 13.0526 26.0916 13.8923" stroke="black" stroke-width="3" stroke-linecap="round"/>
<path d="M26.292 7.87842C26.4118 9.07669 27.2577 11.151 28.0962 12.0882C28.7235 12.7893 29.2851 13.4647 30.1119 13.9814C30.7299 14.3676 31.8602 14.7605 32.1054 15.496" stroke="black" stroke-width="3" stroke-linecap="round"/>
</g>
<defs>
<filter id="filter0_d_2_52" x="0" y="0" width="42" height="42" filterUnits="userSpaceOnUse" color-interpolation-filters="sRGB">
<feFlood flood-opacity="0" result="BackgroundImageFix"/>
<feColorMatrix in="SourceAlpha" type="matrix" values="0 0 0 0 0 0 0 0 0 0 0 0 0 0 0 0 0 0 127 0" result="hardAlpha"/>
<feOffset dy="4"/>
<feGaussianBlur stdDeviation="2"/>
<feComposite in2="hardAlpha" operator="out"/>
<feColorMatrix type="matrix" values="0 0 0 0 0 0 0 0 0 0 0 0 0 0 0 0 0 0 0.25 0"/>
<feBlend mode="normal" in2="BackgroundImageFix" result="effect1_dropShadow_2_52"/>
<feBlend mode="normal" in="SourceGraphic" in2="effect1_dropShadow_2_52" result="shape"/>
</filter>
</defs>
</svg>
