<svg width="103" height="60" viewBox="0 0 103 60" fill="none" xmlns="http://www.w3.org/2000/svg">
<path d="M45.603 57.0873L45.6027 57.087L1.64029 13.4273C0.833493 12.6261 0.534497 11.9576 0.50289 11.3828C0.471082 10.8044 0.703841 10.2147 1.18708 9.55842C1.67226 8.89947 2.37067 8.22547 3.1889 7.48424C3.39142 7.30077 3.60121 7.11325 3.81563 6.9216C4.45436 6.35068 5.13415 5.74306 5.7851 5.09659C6.45829 4.42803 7.05832 3.76004 7.6008 3.15612C7.75992 2.97897 7.91409 2.80734 8.0637 2.64283C8.73583 1.90375 9.30664 1.31923 9.85846 0.94323C10.3961 0.576888 10.8722 0.438118 11.3745 0.525353C11.8989 0.616435 12.5425 0.96885 13.3687 1.78939L51.1131 39.2889L51.4655 39.6389L51.8178 39.289L89.5705 1.79621C90.3917 0.980699 91.0557 0.62479 91.614 0.531671C92.157 0.441092 92.6813 0.586017 93.2621 0.955357C93.8546 1.33215 94.4669 1.91782 95.1671 2.65245C95.3947 2.89127 95.6322 3.14664 95.8797 3.41266C96.3767 3.94687 96.9137 4.52406 97.4902 5.0966C98.0562 5.65867 98.6401 6.19624 99.1919 6.70417C99.4814 6.9707 99.762 7.22906 100.027 7.47852C100.811 8.21819 101.466 8.89037 101.909 9.54534C102.348 10.1952 102.547 10.7836 102.49 11.3675C102.433 11.9532 102.109 12.6298 101.299 13.4342L57.3366 57.0939C55.7179 58.7014 53.5937 59.5 51.4655 59.5C49.3418 59.5 47.2196 58.6954 45.603 57.0873Z" stroke="black"/>
</svg>
