<svg width="82" height="81" viewBox="0 0 82 81" fill="none" xmlns="http://www.w3.org/2000/svg">
<g filter="url(#filter0_d_2_26)">
<mask id="path-1-outside-1_2_26" maskUnits="userSpaceOnUse" x="1.93413" y="-2.34093" width="79.1627" height="76.9878" fill="black">
<rect fill="white" x="1.93413" y="-2.34093" width="79.1627" height="76.9878"/>
<path d="M29.8678 29.191L16.8075 27.2442L4.80463 37.004L29.1563 40.5766C29.4103 36.7677 29.6642 32.9588 29.8678 29.191ZM47.3487 31.732L49.1344 0.95842L37.182 10.6772L36.0164 30.0557L35.3459 41.4918L33.4594 72.3474L45.4118 62.6286L46.6373 43.1176L65.9376 45.9386L77.9405 36.1788L47.3487 31.732Z"/>
</mask>
<path d="M29.8678 29.191L30.8663 29.2449L30.9154 28.3361L30.0152 28.2019L29.8678 29.191ZM16.8075 27.2442L16.9549 26.2551L16.5187 26.1901L16.1766 26.4683L16.8075 27.2442ZM4.80463 37.004L4.17375 36.2281L2.40883 37.6632L4.65948 37.9934L4.80463 37.004ZM29.1563 40.5766L29.0112 41.566L30.0821 41.7231L30.1541 40.6431L29.1563 40.5766ZM47.3487 31.732L46.3504 31.6741L46.2973 32.5897L47.2049 32.7216L47.3487 31.732ZM49.1344 0.958421L50.1327 1.01635L50.2642 -1.24909L48.5035 0.182544L49.1344 0.958421ZM37.182 10.6772L36.5511 9.90131L36.2102 10.1785L36.1838 10.6171L37.182 10.6772ZM36.0164 30.0557L35.0182 29.9957L35.0181 29.9972L36.0164 30.0557ZM35.3459 41.4918L36.3441 41.5528L36.3442 41.5503L35.3459 41.4918ZM33.4594 72.3474L32.4613 72.2864L32.3222 74.5609L34.0903 73.1233L33.4594 72.3474ZM45.4118 62.6286L46.0427 63.4045L46.3824 63.1283L46.4098 62.6913L45.4118 62.6286ZM46.6373 43.1176L46.7819 42.1281L45.7073 41.9711L45.6393 43.0549L46.6373 43.1176ZM65.9376 45.9386L65.793 46.9281L66.2277 46.9916L66.5685 46.7145L65.9376 45.9386ZM77.9405 36.1788L78.5713 36.9547L80.3394 35.517L78.0843 35.1892L77.9405 36.1788ZM30.0152 28.2019L16.9549 26.2551L16.66 28.2333L29.7203 30.18L30.0152 28.2019ZM16.1766 26.4683L4.17375 36.2281L5.43552 37.7798L17.4383 28.0201L16.1766 26.4683ZM4.65948 37.9934L29.0112 41.566L29.3015 39.5872L4.94979 36.0145L4.65948 37.9934ZM30.1541 40.6431C30.408 36.8353 30.6624 33.0201 30.8663 29.2449L28.8692 29.137C28.6661 32.8975 28.4126 36.7001 28.1585 40.5101L30.1541 40.6431ZM48.3471 31.7899L50.1327 1.01635L48.1361 0.900491L46.3504 31.6741L48.3471 31.7899ZM48.5035 0.182544L36.5511 9.90131L37.8129 11.4531L49.7653 1.7343L48.5035 0.182544ZM36.1838 10.6171L35.0182 29.9957L37.0146 30.1158L38.1802 10.7372L36.1838 10.6171ZM35.0181 29.9972L34.3476 41.4333L36.3442 41.5503L37.0147 30.1143L35.0181 29.9972ZM34.3478 41.4308L32.4613 72.2864L34.4575 72.4084L36.3441 41.5528L34.3478 41.4308ZM34.0903 73.1233L46.0427 63.4045L44.7809 61.8528L32.8285 71.5715L34.0903 73.1233ZM46.4098 62.6913L47.6353 43.1803L45.6393 43.0549L44.4138 62.5659L46.4098 62.6913ZM46.4927 44.1071L65.793 46.9281L66.0823 44.9491L46.7819 42.1281L46.4927 44.1071ZM66.5685 46.7145L78.5713 36.9547L77.3096 35.403L65.3068 45.1627L66.5685 46.7145ZM78.0843 35.1892L47.4926 30.7424L47.2049 32.7216L77.7966 37.1684L78.0843 35.1892Z" fill="black" mask="url(#path-1-outside-1_2_26)"/>
</g>
<defs>
<filter id="filter0_d_2_26" x="0.75415" y="0.876404" width="81.1863" height="79.471" filterUnits="userSpaceOnUse" color-interpolation-filters="sRGB">
<feFlood flood-opacity="0" result="BackgroundImageFix"/>
<feColorMatrix in="SourceAlpha" type="matrix" values="0 0 0 0 0 0 0 0 0 0 0 0 0 0 0 0 0 0 127 0" result="hardAlpha"/>
<feOffset dy="4"/>
<feGaussianBlur stdDeviation="2"/>
<feComposite in2="hardAlpha" operator="out"/>
<feColorMatrix type="matrix" values="0 0 0 0 0 0 0 0 0 0 0 0 0 0 0 0 0 0 0.25 0"/>
<feBlend mode="normal" in2="BackgroundImageFix" result="effect1_dropShadow_2_26"/>
<feBlend mode="normal" in="SourceGraphic" in2="effect1_dropShadow_2_26" result="shape"/>
</filter>
</defs>
</svg>
