<?xml version="1.0" standalone="no"?>
<!DOCTYPE svg PUBLIC "-//W3C//DTD SVG 20010904//EN"
 "http://www.w3.org/TR/2001/REC-SVG-20010904/DTD/svg10.dtd">
<svg version="1.0" xmlns="http://www.w3.org/2000/svg"
 width="24.000000pt" height="24.000000pt" viewBox="0 0 32.000000 32.000000"
 preserveAspectRatio="xMidYMid meet">

<g transform="translate(0.000000,32.000000) scale(0.100000,-0.100000)"
fill="#00e6f6" stroke="none">
<path d="M95 306 c-101 -44 -125 -178 -46 -257 65 -65 157 -65 222 0 124 124
-15 327 -176 257z m26 -82 c15 -13 16 -20 6 -35 -10 -16 -7 -23 16 -46 23 -23
30 -26 46 -16 15 10 22 8 36 -7 33 -37 -10 -54 -64 -25 -41 21 -81 72 -81 104
0 43 13 51 41 25z"/>
</g>
</svg>
