<?xml version="1.0" standalone="no"?>
<!DOCTYPE svg PUBLIC "-//W3C//DTD SVG 20010904//EN"
 "http://www.w3.org/TR/2001/REC-SVG-20010904/DTD/svg10.dtd">
<svg version="1.0" xmlns="http://www.w3.org/2000/svg"
 width="4.000000pt" height="4.000000pt" viewBox="0 0 512.000000 512.000000"
 preserveAspectRatio="xMidYMid meet">

<g transform="translate(0.000000,512.000000) scale(0.100000,-0.100000)"
fill="#00e6f6" stroke="none">
<path d="M770 3866 c8 -8 343 -239 744 -515 l728 -501 34 29 c89 79 199 117
314 108 99 -7 159 -30 235 -87 l63 -48 739 505 c406 278 742 509 748 514 5 5
-732 9 -1805 9 -1558 0 -1812 -2 -1800 -14z m2424 -289 c10 -8 19 -26 19 -40
0 -60 31 -57 -644 -57 -548 0 -619 2 -633 16 -21 20 -20 53 1 76 15 17 48 18
628 18 492 0 615 -3 629 -13z"/>
<path d="M622 3453 l3 -368 115 -3 c123 -3 140 -10 140 -57 0 -45 -28 -55
-148 -55 l-112 0 0 -175 0 -175 180 0 c167 0 181 -1 200 -20 24 -24 25 -49 6
-76 -13 -17 -30 -19 -200 -22 l-186 -3 0 -175 0 -174 113 0 c98 0 116 -3 130
-18 20 -22 22 -52 5 -75 -11 -13 -34 -17 -128 -19 l-115 -3 -3 -367 c-1 -203
0 -368 3 -368 2 0 285 193 627 428 343 236 632 431 642 435 29 11 66 -18 66
-53 0 -37 29 -16 -640 -475 -294 -202 -542 -373 -550 -381 -12 -12 238 -14
1800 -14 1079 0 1810 4 1805 9 -6 5 -269 186 -585 401 -316 216 -585 402 -597
413 -25 22 -30 66 -11 85 32 32 63 14 694 -418 l629 -430 3 191 c1 105 1 273
0 374 l-3 184 -80 -61 c-100 -75 -120 -83 -151 -63 -22 14 -24 21 -26 148 l-3
132 -388 5 c-330 4 -389 7 -397 20 -6 9 -10 150 -10 332 0 275 2 319 16 332
13 14 64 16 399 16 l384 0 3 137 c3 137 3 137 30 152 25 15 29 14 80 -22 29
-20 74 -53 101 -73 l47 -36 0 376 c0 207 -2 376 -4 376 -4 0 -1535 -1047
-1548 -1059 -4 -3 2 -35 12 -70 64 -203 -28 -420 -217 -515 -342 -172 -722
165 -594 528 l18 52 -770 530 c-423 291 -774 531 -779 532 -4 2 -7 -158 -6
-365z m2518 -1823 l0 -90 -575 0 -575 0 0 90 0 90 575 0 575 0 0 -90z"/>
<path d="M125 3056 c-18 -27 -7 -69 20 -80 9 -3 95 -6 191 -6 l174 0 0 55 0
55 -185 0 c-183 0 -185 0 -200 -24z"/>
<path d="M4360 2932 c0 -83 -3 -102 -18 -115 -17 -15 -59 -17 -400 -17 l-382
0 0 -240 0 -240 383 0 c356 0 385 -1 400 -18 12 -13 17 -43 19 -115 l3 -98 85
63 c47 35 189 138 315 231 127 92 230 172 230 177 0 8 -620 470 -631 470 -2 0
-4 -44 -4 -98z"/>
<path d="M2502 2869 c-144 -28 -252 -160 -252 -309 0 -124 64 -226 177 -282
159 -78 337 -16 420 145 22 43 27 65 27 132 1 99 -24 162 -92 228 -76 74 -179
106 -280 86z"/>
<path d="M270 2600 c-11 -11 -20 -29 -20 -40 0 -11 9 -29 20 -40 19 -19 31
-20 128 -18 l107 3 0 55 0 55 -107 3 c-97 2 -109 1 -128 -18z"/>
<path d="M142 2143 c-25 -10 -34 -53 -17 -79 15 -24 17 -24 200 -24 l185 0 0
55 0 55 -177 -1 c-98 0 -184 -3 -191 -6z"/>
</g>
</svg>
