<?xml version="1.0" standalone="no"?>
<!DOCTYPE svg PUBLIC "-//W3C//DTD SVG 20010904//EN"
 "http://www.w3.org/TR/2001/REC-SVG-20010904/DTD/svg10.dtd">
<svg version="1.0" xmlns="http://www.w3.org/2000/svg"
 width="64.000000pt" height="46.000000pt" viewBox="0 0 64.000000 64.000000"
 preserveAspectRatio="xMidYMid meet">

<g transform="translate(0.000000,64.000000) scale(0.100000,-0.100000)"
fill="#ffffff" stroke="none">
<path d="M577 573 c-11 -10 -8 -51 3 -58 6 -3 10 -13 10 -21 0 -10 -12 -14
-44 -14 -48 0 -60 -8 -49 -36 6 -15 7 -15 18 -1 6 9 30 17 56 19 35 2 44 7 47
23 2 11 8 30 14 42 8 17 8 26 -2 38 -13 15 -42 20 -53 8z m33 -29 c0 -8 -5
-12 -10 -9 -6 4 -8 11 -5 16 9 14 15 11 15 -7z"/>
<path d="M16 497 c-21 -16 -18 -45 6 -61 13 -8 21 -6 36 7 23 21 68 22 76 1 8
-20 26 -9 26 17 0 16 -7 19 -44 19 -26 0 -48 6 -56 15 -15 18 -21 19 -44 2z
m34 -27 c0 -5 -4 -10 -10 -10 -5 0 -10 5 -10 10 0 6 5 10 10 10 6 0 10 -4 10
-10z"/>
<path d="M235 464 c-22 -8 -66 -35 -98 -60 -32 -25 -65 -48 -73 -51 -8 -3 -14
-15 -14 -28 0 -17 20 -38 73 -79 106 -81 178 -101 270 -75 50 13 197 125 197
149 0 24 -147 136 -197 149 -51 15 -110 13 -158 -5z m161 -30 c57 -38 77 -130
40 -186 -63 -97 -217 -77 -246 32 -34 125 99 224 206 154z m-226 -53 c-13 -25
-13 -97 0 -122 15 -27 -2 -24 -30 6 -14 15 -24 37 -24 55 0 18 10 40 24 55 28
30 45 33 30 6z m330 -6 c14 -15 24 -37 24 -55 0 -18 -10 -40 -24 -55 -28 -30
-45 -33 -30 -6 5 11 10 38 10 61 0 23 -5 50 -10 61 -15 27 2 24 30 -6z m-410
-55 c0 -5 -4 -10 -10 -10 -5 0 -10 5 -10 10 0 6 5 10 10 10 6 0 10 -4 10 -10z
m480 0 c0 -5 -4 -10 -10 -10 -5 0 -10 5 -10 10 0 6 5 10 10 10 6 0 10 -4 10
-10z"/>
<path d="M285 408 c-4 -10 -12 -18 -17 -18 -19 0 -47 -44 -36 -57 7 -9 7 -17
-1 -26 -16 -20 56 -92 76 -76 9 8 17 8 26 0 20 -16 92 56 76 76 -8 9 -8 17 -1
26 11 13 -17 57 -36 57 -5 0 -13 8 -17 18 -6 16 -7 16 -21 -2 -14 -20 -14 -20
-28 0 -14 18 -15 18 -21 2z m85 -88 l0 -50 -50 0 -50 0 0 50 0 50 50 0 50 0 0
-50z"/>
<path d="M297 342 c-10 -10 -17 -28 -17 -40 0 -19 6 -22 40 -22 l40 0 0 40 c0
35 -3 40 -23 40 -13 0 -31 -8 -40 -18z"/>
<path d="M127 196 c-4 -10 -24 -16 -54 -18 -39 -2 -48 -7 -51 -23 -2 -11 -8
-30 -14 -42 -14 -28 6 -55 36 -51 24 3 35 43 17 61 -25 25 -11 37 39 37 43 0
50 3 50 19 0 25 -16 36 -23 17z m-82 -95 c3 -5 1 -12 -5 -16 -5 -3 -10 1 -10
9 0 18 6 21 15 7z"/>
<path d="M487 204 c-4 -4 -7 -16 -7 -26 0 -15 8 -18 42 -18 24 0 49 -7 59 -16
23 -21 62 -2 57 28 -5 33 -33 46 -56 25 -23 -21 -61 -22 -76 -1 -6 8 -15 12
-19 8z m123 -34 c0 -5 -4 -10 -10 -10 -5 0 -10 5 -10 10 0 6 5 10 10 10 6 0
10 -4 10 -10z"/>
</g>
</svg>
