<?xml version="1.0" standalone="no"?>
<!DOCTYPE svg PUBLIC "-//W3C//DTD SVG 20010904//EN"
 "http://www.w3.org/TR/2001/REC-SVG-20010904/DTD/svg10.dtd">
<svg version="1.0" xmlns="http://www.w3.org/2000/svg"
 width="64.000000pt" height="46.000000pt" viewBox="0 0 64.000000 64.000000"
 preserveAspectRatio="xMidYMid meet">

<g transform="translate(0.000000,64.000000) scale(0.100000,-0.100000)"
fill="#ffffff" stroke="none">
<path d="M355 631 c-3 -6 -24 -11 -46 -11 l-39 0 0 -75 0 -75 -33 0 c-36 0
-67 -25 -67 -53 0 -8 -10 -18 -22 -20 l-23 -4 23 -2 c18 -1 22 -7 22 -31 0
-23 -4 -30 -20 -30 -11 0 -20 -4 -20 -10 0 -5 9 -10 20 -10 11 0 20 -7 20 -15
0 -8 5 -15 10 -15 6 0 10 33 10 80 0 73 12 105 23 63 4 -15 6 -15 12 5 4 12
11 22 15 22 5 0 11 -10 13 -22 l4 -23 2 23 c1 22 3 23 94 20 l92 -3 3 -122 c1
-74 -1 -123 -7 -123 -5 0 -12 8 -14 18 -4 14 -6 14 -12 -6 -4 -12 -11 -22 -15
-22 -5 0 -11 10 -13 22 l-4 23 -2 -23 c-1 -22 -3 -23 -93 -20 l-93 3 -3 33
c-2 17 -7 32 -13 32 -5 0 -9 -4 -9 -9 0 -5 -10 -12 -22 -14 l-23 -4 23 -2 c12
0 22 -7 22 -14 0 -19 33 -47 54 -47 9 0 14 -4 11 -10 -3 -5 -36 -10 -73 -10
-65 0 -68 -1 -81 -30 -15 -35 -9 -60 14 -60 21 0 31 29 16 51 -11 18 -7 19 64
19 68 0 75 2 75 20 0 13 7 20 20 20 17 0 20 -7 20 -40 0 -38 -2 -40 -30 -40
-17 0 -39 5 -49 12 -22 14 -51 4 -51 -17 0 -21 29 -31 51 -17 10 7 37 12 59
12 l40 0 0 45 c0 38 3 45 20 45 13 0 20 -7 20 -20 0 -11 5 -20 10 -20 6 0 10
9 10 20 0 16 7 20 33 20 33 0 67 24 67 48 0 6 10 13 23 15 l22 4 -22 2 c-19 1
-23 7 -23 36 0 28 4 35 20 35 11 0 20 5 20 10 0 6 -9 10 -20 10 -31 0 -28 57
3 63 l22 4 -22 2 c-15 1 -23 7 -23 19 0 23 -30 52 -54 52 -9 0 -14 5 -11 10 3
6 36 10 73 10 65 0 68 1 81 30 15 35 9 60 -14 60 -21 0 -31 -29 -16 -51 11
-18 7 -19 -64 -19 -68 0 -75 -2 -75 -20 0 -13 -7 -20 -20 -20 -17 0 -20 7 -20
40 0 38 2 40 30 40 17 0 39 -5 49 -12 22 -14 51 -4 51 17 0 21 -29 31 -51 17
-10 -7 -37 -12 -59 -12 l-40 0 0 -45 c0 -38 -3 -45 -20 -45 -18 0 -20 7 -20
65 0 63 1 65 26 65 14 0 33 -4 43 -9 22 -12 44 1 39 25 -4 21 -33 31 -43 15z"/>
<path d="M262 377 c-28 -29 -32 -39 -32 -90 l0 -57 58 0 c53 0 61 3 90 33 28
29 32 39 32 90 0 39 -4 57 -12 57 -9 0 -12 -15 -9 -51 3 -46 0 -54 -30 -85
-26 -27 -41 -34 -71 -34 l-38 0 0 48 c0 41 5 53 33 79 17 17 43 33 57 36 19 3
17 5 -11 6 -28 1 -42 -6 -67 -32z"/>
<path d="M310 370 c0 -5 5 -10 10 -10 6 0 10 5 10 10 0 6 -4 10 -10 10 -5 0
-10 -4 -10 -10z"/>
<path d="M350 370 c0 -5 5 -10 11 -10 5 0 7 5 4 10 -3 6 -8 10 -11 10 -2 0 -4
-4 -4 -10z"/>
<path d="M350 99 c0 -5 5 -7 10 -4 6 3 10 8 10 11 0 2 -4 4 -10 4 -5 0 -10 -5
-10 -11z"/>
<path d="M350 61 c0 -16 -6 -21 -27 -21 -16 0 -34 4 -42 9 -20 13 -41 2 -41
-20 0 -24 27 -36 43 -20 6 6 28 11 49 11 34 0 38 3 38 24 0 14 -4 28 -10 31
-5 3 -10 -3 -10 -14z"/>
</g>
</svg>
