<?xml version="1.0" standalone="no"?>
<!DOCTYPE svg PUBLIC "-//W3C//DTD SVG 20010904//EN"
 "http://www.w3.org/TR/2001/REC-SVG-20010904/DTD/svg10.dtd">
<svg version="1.0" xmlns="http://www.w3.org/2000/svg"
 width="64.000000pt" height="48.000000pt" viewBox="0 0 64.000000 64.000000"
 preserveAspectRatio="xMidYMid meet">

<g transform="translate(0.000000,64.000000) scale(0.100000,-0.100000)"
fill="#ffffff" stroke="none">
<path d="M267 546 c-75 -27 -107 -78 -107 -168 0 -42 -4 -56 -20 -66 -11 -7
-20 -18 -20 -25 0 -7 -9 -18 -20 -25 -14 -9 -20 -23 -20 -50 0 -43 14 -62 47
-62 12 0 27 -9 33 -20 7 -13 21 -20 39 -20 17 0 31 -7 35 -15 5 -13 21 -15 88
-13 l83 3 3 33 c2 23 8 32 21 32 29 0 51 33 51 78 0 38 2 42 25 42 31 0 31 13
3 53 -12 17 -25 55 -29 86 -4 30 -16 66 -27 80 -41 56 -121 80 -185 57z m119
-32 c38 -18 74 -82 74 -133 0 -17 7 -42 15 -55 14 -21 14 -24 0 -29 -10 -4
-15 -20 -15 -47 0 -66 -13 -80 -70 -80 -27 0 -52 -4 -55 -10 -4 -6 5 -10 19
-10 19 0 26 -5 26 -20 0 -18 -7 -20 -60 -20 -56 0 -60 1 -60 23 0 13 -13 42
-28 63 -38 52 -52 96 -52 162 0 134 97 208 206 156z m-208 -282 c2 -7 -3 -12
-12 -12 -9 0 -16 7 -16 16 0 17 22 14 28 -4z m-12 -32 c33 0 64 -28 64 -57 0
-21 -38 -15 -50 7 -7 13 -21 20 -40 20 -28 0 -30 2 -29 38 0 34 1 35 11 15 8
-17 20 -23 44 -23z"/>
<path d="M251 443 c-20 -22 -29 -39 -23 -41 16 -5 15 -29 0 -36 -9 -3 -8 -8 5
-16 9 -6 17 -18 17 -25 0 -8 6 -15 14 -15 8 0 17 -8 21 -17 6 -17 7 -17 21 1
14 20 14 20 28 0 14 -18 15 -18 21 -1 4 9 13 17 21 17 8 0 14 7 14 15 0 7 8
19 18 25 12 8 13 13 5 16 -16 7 -17 31 -1 36 12 4 -54 78 -70 78 -6 0 -13 -6
-16 -12 -5 -10 -7 -10 -12 0 -9 20 -27 13 -63 -25z m119 -63 l0 -50 -50 0 -50
0 0 50 0 50 50 0 50 0 0 -50z"/>
<path d="M292 408 c-7 -7 -12 -22 -12 -35 0 -20 5 -23 40 -23 39 0 40 1 40 35
0 32 -3 35 -28 35 -15 0 -33 -5 -40 -12z"/>
<path d="M12 498 c-21 -21 -14 -48 16 -59 15 -6 35 -15 44 -20 24 -12 68 -11
68 1 0 6 -10 10 -23 10 -29 0 -47 18 -47 46 0 31 -36 44 -58 22z m38 -28 c0
-5 -4 -10 -10 -10 -5 0 -10 5 -10 10 0 6 5 10 10 10 6 0 10 -4 10 -10z"/>
<path d="M576 495 c-8 -8 -32 -15 -55 -15 -23 0 -41 -4 -41 -10 0 -5 19 -10
42 -10 24 0 49 -7 59 -16 34 -31 80 21 47 54 -16 16 -33 15 -52 -3z m34 -25
c0 -5 -4 -10 -10 -10 -5 0 -10 5 -10 10 0 6 5 10 10 10 6 0 10 -4 10 -10z"/>
<path d="M510 396 c0 -9 12 -16 27 -18 22 -2 29 -9 33 -33 6 -34 39 -46 59
-21 19 22 4 56 -23 56 -13 0 -29 7 -36 15 -16 19 -60 20 -60 1z m100 -52 c0
-8 -5 -12 -10 -9 -6 4 -8 11 -5 16 9 14 15 11 15 -7z"/>
<path d="M10 365 c-26 -31 16 -69 51 -47 10 7 32 12 49 12 20 0 30 5 30 15 0
10 -10 15 -34 15 -19 0 -38 5 -41 10 -9 15 -41 12 -55 -5z m35 -14 c3 -5 1
-12 -5 -16 -5 -3 -10 1 -10 9 0 18 6 21 15 7z"/>
<path d="M540 160 c0 -22 5 -40 10 -40 6 0 10 18 10 40 0 22 -4 40 -10 40 -5
0 -10 -18 -10 -40z"/>
<path d="M490 145 c0 -14 5 -25 10 -25 6 0 10 11 10 25 0 14 -4 25 -10 25 -5
0 -10 -11 -10 -25z"/>
<path d="M590 140 c0 -11 5 -20 10 -20 6 0 10 9 10 20 0 11 -4 20 -10 20 -5 0
-10 -9 -10 -20z"/>
<path d="M430 122 c0 -5 8 -17 19 -26 15 -14 35 -16 102 -14 107 4 110 22 4
26 -44 2 -84 7 -89 12 -12 12 -36 13 -36 2z"/>
</g>
</svg>
