<?xml version="1.0" standalone="no"?>
<!DOCTYPE svg PUBLIC "-//W3C//DTD SVG 20010904//EN"
 "http://www.w3.org/TR/2001/REC-SVG-20010904/DTD/svg10.dtd">
<svg version="1.0" xmlns="http://www.w3.org/2000/svg"
 width="64.000000pt" height="46.000000pt" viewBox="0 0 64.000000 64.000000"
 preserveAspectRatio="xMidYMid meet">

<g transform="translate(0.000000,64.000000) scale(0.100000,-0.100000)"
fill="#ffffff" stroke="none">
<path d="M100 550 c0 -27 -3 -30 -30 -30 l-30 0 0 -65 c0 -37 4 -65 10 -65 6
0 10 11 10 25 0 18 5 25 20 25 11 0 20 -4 20 -10 0 -5 -4 -10 -10 -10 -10 0
-90 -151 -90 -170 0 -6 36 -10 91 -10 86 0 91 1 86 20 -4 16 0 20 19 20 21 0
24 4 24 40 0 38 -2 40 -30 40 -26 0 -30 -4 -30 -27 l-1 -28 -19 35 c-13 24
-19 55 -20 98 l0 62 210 0 210 0 0 -90 c0 -53 4 -90 10 -90 6 0 10 50 10 130
l0 130 -230 0 -230 0 0 -30z m60 -10 c0 -13 -7 -20 -20 -20 -13 0 -20 7 -20
20 0 13 7 20 20 20 13 0 20 -7 20 -20z m380 0 c0 -19 -7 -20 -180 -20 -173 0
-180 1 -180 20 0 19 7 20 180 20 173 0 180 -1 180 -20z m-440 -60 c0 -13 -7
-20 -20 -20 -13 0 -20 7 -20 20 0 13 7 20 20 20 13 0 20 -7 20 -20z m36 -172
l24 -48 -70 0 -70 0 32 65 c37 74 37 74 84 -17z m64 12 c0 -11 -4 -20 -10 -20
-5 0 -10 9 -10 20 0 11 5 20 10 20 6 0 10 -9 10 -20z"/>
<path d="M280 540 c0 -5 5 -10 10 -10 6 0 10 5 10 10 0 6 -4 10 -10 10 -5 0
-10 -4 -10 -10z"/>
<path d="M320 540 c0 -5 5 -10 10 -10 6 0 10 5 10 10 0 6 -4 10 -10 10 -5 0
-10 -4 -10 -10z"/>
<path d="M360 540 c0 -5 5 -10 10 -10 6 0 10 5 10 10 0 6 -4 10 -10 10 -5 0
-10 -4 -10 -10z"/>
<path d="M80 330 c0 -11 5 -20 10 -20 6 0 10 9 10 20 0 11 -4 20 -10 20 -5 0
-10 -9 -10 -20z"/>
<path d="M80 280 c0 -5 5 -10 10 -10 6 0 10 5 10 10 0 6 -4 10 -10 10 -5 0
-10 -4 -10 -10z"/>
<path d="M160 420 c0 -38 2 -40 30 -40 28 0 30 2 30 40 0 38 -2 40 -30 40 -28
0 -30 -2 -30 -40z m40 0 c0 -11 -4 -20 -10 -20 -5 0 -10 9 -10 20 0 11 5 20
10 20 6 0 10 -9 10 -20z"/>
<path d="M240 420 c0 -22 5 -40 10 -40 6 0 10 18 10 40 0 22 -4 40 -10 40 -5
0 -10 -18 -10 -40z"/>
<path d="M280 420 c0 -38 2 -40 30 -40 28 0 30 2 30 40 0 38 -2 40 -30 40 -28
0 -30 -2 -30 -40z m40 0 c0 -11 -4 -20 -10 -20 -5 0 -10 9 -10 20 0 11 5 20
10 20 6 0 10 -9 10 -20z"/>
<path d="M360 420 c0 -22 5 -40 10 -40 6 0 10 18 10 40 0 22 -4 40 -10 40 -5
0 -10 -18 -10 -40z"/>
<path d="M400 420 c0 -22 5 -40 10 -40 6 0 10 18 10 40 0 22 -4 40 -10 40 -5
0 -10 -18 -10 -40z"/>
<path d="M440 420 c0 -38 2 -40 30 -40 28 0 30 2 30 40 0 38 -2 40 -30 40 -28
0 -30 -2 -30 -40z m40 0 c0 -11 -4 -20 -10 -20 -5 0 -10 9 -10 20 0 11 5 20
10 20 6 0 10 -9 10 -20z"/>
<path d="M240 320 c0 -38 2 -40 30 -40 28 0 30 2 30 40 0 38 -2 40 -30 40 -28
0 -30 -2 -30 -40z m40 0 c0 -11 -4 -20 -10 -20 -5 0 -10 9 -10 20 0 11 5 20
10 20 6 0 10 -9 10 -20z"/>
<path d="M320 320 c0 -22 5 -40 10 -40 6 0 10 18 10 40 0 22 -4 40 -10 40 -5
0 -10 -18 -10 -40z"/>
<path d="M360 320 c0 -38 2 -40 30 -40 28 0 30 2 30 40 0 38 -2 40 -30 40 -28
0 -30 -2 -30 -40z m40 0 c0 -11 -4 -20 -10 -20 -5 0 -10 9 -10 20 0 11 5 20
10 20 6 0 10 -9 10 -20z"/>
<path d="M440 320 c0 -22 5 -40 10 -40 6 0 10 18 10 40 0 22 -4 40 -10 40 -5
0 -10 -18 -10 -40z"/>
<path d="M480 320 c0 -22 5 -40 10 -40 6 0 10 18 10 40 0 22 -4 40 -10 40 -5
0 -10 -18 -10 -40z"/>
<path d="M521 263 c-12 -23 -20 -31 -21 -20 0 36 -20 15 -20 -23 0 -21 -6 -51
-12 -66 -10 -22 -10 -28 0 -32 6 -2 12 -12 12 -23 0 -18 -10 -19 -210 -19
l-210 0 0 70 c0 40 -4 70 -10 70 -6 0 -10 -33 -10 -80 l0 -80 230 0 230 0 0
30 0 30 70 0 c41 0 70 4 70 10 0 19 -80 170 -90 170 -5 0 -18 -17 -29 -37z
m63 -121 c-19 -2 -50 -2 -69 0 l-34 3 36 64 36 64 33 -64 32 -64 -34 -3z"/>
<path d="M540 210 c0 -11 5 -20 10 -20 6 0 10 9 10 20 0 11 -4 20 -10 20 -5 0
-10 -9 -10 -20z"/>
<path d="M540 160 c0 -5 5 -10 10 -10 6 0 10 5 10 10 0 6 -4 10 -10 10 -5 0
-10 -4 -10 -10z"/>
<path d="M200 220 c0 -38 2 -40 30 -40 28 0 30 2 30 40 0 38 -2 40 -30 40 -28
0 -30 -2 -30 -40z m40 0 c0 -11 -4 -20 -10 -20 -5 0 -10 9 -10 20 0 11 5 20
10 20 6 0 10 -9 10 -20z"/>
<path d="M280 220 c0 -38 2 -40 30 -40 28 0 30 2 30 40 0 38 -2 40 -30 40 -28
0 -30 -2 -30 -40z m40 0 c0 -11 -4 -20 -10 -20 -5 0 -10 9 -10 20 0 11 5 20
10 20 6 0 10 -9 10 -20z"/>
<path d="M360 220 c0 -22 5 -40 10 -40 6 0 10 18 10 40 0 22 -4 40 -10 40 -5
0 -10 -18 -10 -40z"/>
<path d="M400 220 c0 -38 2 -40 30 -40 28 0 30 2 30 40 0 38 -2 40 -30 40 -28
0 -30 -2 -30 -40z m40 0 c0 -11 -4 -20 -10 -20 -5 0 -10 9 -10 20 0 11 5 20
10 20 6 0 10 -9 10 -20z"/>
<path d="M100 170 l0 -50 170 0 c107 0 170 4 170 10 0 6 -60 10 -160 10 l-160
0 0 40 c0 22 -4 40 -10 40 -5 0 -10 -22 -10 -50z"/>
<path d="M160 200 c0 -11 5 -20 10 -20 6 0 10 9 10 20 0 11 -4 20 -10 20 -5 0
-10 -9 -10 -20z"/>
</g>
</svg>
