<?xml version="1.0" standalone="no"?>
<!DOCTYPE svg PUBLIC "-//W3C//DTD SVG 20010904//EN"
 "http://www.w3.org/TR/2001/REC-SVG-20010904/DTD/svg10.dtd">
<svg version="1.0" xmlns="http://www.w3.org/2000/svg"
 width="64.000000pt" height="36.000000pt" viewBox="0 0 64.000000 64.000000"
 preserveAspectRatio="xMidYMid meet">

<g transform="translate(0.000000,64.000000) scale(0.100000,-0.100000)"
fill="#ffffff" stroke="none">
<path d="M275 630 c-26 -10 -61 -49 -69 -77 -7 -21 -14 -22 -104 -25 l-97 -3
-3 -58 c-2 -39 0 -57 7 -52 6 3 11 26 11 51 0 40 2 44 25 44 27 0 34 -15 10
-24 -20 -7 -20 -56 0 -56 19 0 19 -16 0 -24 -20 -7 -20 -56 0 -56 8 0 15 -7
15 -15 0 -8 -7 -15 -15 -15 -9 0 -15 -9 -15 -25 0 -16 6 -25 15 -25 8 0 15 -7
15 -15 0 -8 -7 -15 -15 -15 -9 0 -15 -9 -15 -25 0 -16 6 -25 15 -25 8 0 15 -7
15 -15 0 -8 -7 -15 -15 -15 -9 0 -15 -9 -15 -25 l0 -25 280 0 280 0 0 25 c0
16 -6 25 -15 25 -8 0 -15 7 -15 15 0 8 7 15 15 15 9 0 15 9 15 25 0 16 -6 25
-15 25 -8 0 -15 7 -15 15 0 8 7 15 15 15 9 0 15 9 15 25 0 16 -6 25 -15 25 -8
0 -15 7 -15 15 0 8 7 15 15 15 9 0 15 9 15 25 0 14 -7 28 -15 31 -8 4 -15 10
-15 15 0 5 7 9 15 9 9 0 15 9 15 25 0 14 -7 28 -15 31 -24 9 -17 24 10 24 l25
0 0 -105 c0 -66 4 -105 10 -105 7 0 10 40 8 113 l-3 112 -97 3 -96 3 -11 29
c-5 17 -15 30 -22 30 -6 0 -9 -6 -6 -14 4 -9 0 -12 -13 -9 -10 3 -20 13 -23
23 -3 13 0 17 9 13 8 -3 14 0 14 6 0 25 -74 38 -115 21z m63 -22 c19 -19 14
-28 -18 -28 -16 0 -30 4 -30 8 0 9 21 32 30 32 3 0 11 -5 18 -12z m-65 -17
c-3 -11 -13 -21 -24 -24 -15 -4 -17 -2 -9 13 5 10 15 21 22 23 7 3 14 6 15 6
0 1 -1 -8 -4 -18z m87 -71 l0 -40 -40 0 -40 0 0 40 0 40 40 0 40 0 0 -40z
m-100 0 c0 -28 -2 -30 -20 -20 -23 12 -25 21 -8 38 20 20 28 14 28 -18z m148
18 c17 -17 15 -26 -8 -38 -18 -10 -20 -8 -20 20 0 32 8 38 28 18z m-195 -63
c44 -93 170 -93 214 0 16 33 19 35 70 35 l53 0 -2 -192 -3 -193 -25 0 c-21 0
-26 6 -30 35 -5 36 -36 90 -51 90 -5 0 -18 9 -29 20 -29 29 -151 29 -180 0
-11 -11 -24 -20 -29 -20 -15 0 -46 -54 -51 -90 -4 -29 -9 -35 -30 -35 l-25 0
-3 193 -2 192 53 0 c51 0 54 -2 70 -35z m60 -26 c7 -24 5 -24 -22 5 -22 23
-22 24 -3 19 11 -2 22 -13 25 -24z m137 28 c0 -2 -11 -14 -24 -26 -24 -22 -25
-22 -19 -3 3 12 12 23 22 25 9 3 17 5 19 6 1 0 2 0 2 -2z m-60 -26 c0 -5 -7
-14 -15 -21 -12 -10 -18 -10 -30 0 -23 19 -18 30 15 30 17 0 30 -4 30 -9z m45
-191 c4 -6 -12 -10 -39 -10 -25 0 -46 -4 -46 -10 0 -6 28 -10 64 -10 56 0 67
-3 80 -22 21 -29 21 -88 2 -88 -9 0 -18 16 -23 43 -7 33 -13 43 -31 45 -30 4
-30 -30 0 -50 30 -20 15 -38 -34 -38 -39 0 -40 1 -34 28 12 50 11 56 -8 60
-25 5 -44 -14 -28 -30 7 -7 12 -22 12 -35 0 -20 -5 -23 -39 -23 -48 0 -63 18
-33 38 30 20 30 54 0 50 -18 -2 -24 -12 -31 -45 -10 -53 -37 -60 -37 -10 0 51
24 77 71 77 21 0 39 5 39 10 0 6 -9 10 -21 10 -11 0 -17 5 -14 10 3 6 37 10
75 10 38 0 72 -4 75 -10z"/>
<path d="M300 520 c0 -13 7 -20 20 -20 13 0 20 7 20 20 0 13 -7 20 -20 20 -13
0 -20 -7 -20 -20z"/>
<path d="M110 466 c0 -20 5 -36 10 -36 6 0 10 13 10 29 0 17 -4 33 -10 36 -6
4 -10 -8 -10 -29z"/>
<path d="M144 486 c-10 -26 0 -51 21 -51 16 0 20 7 20 30 0 33 -30 49 -41 21z
m23 -28 c-3 -8 -6 -5 -6 6 -1 11 2 17 5 13 3 -3 4 -12 1 -19z"/>
<path d="M454 486 c-10 -26 1 -51 21 -51 37 0 29 64 -8 65 -4 0 -10 -6 -13
-14z m23 -28 c-3 -8 -6 -5 -6 6 -1 11 2 17 5 13 3 -3 4 -12 1 -19z"/>
<path d="M517 493 c-11 -10 -8 -63 3 -63 6 0 10 16 10 35 0 36 -2 40 -13 28z"/>
<path d="M121 410 c-7 -4 -11 -18 -9 -31 5 -35 42 -33 46 2 3 28 -16 43 -37
29z m16 -32 c-3 -8 -6 -5 -6 6 -1 11 2 17 5 13 3 -3 4 -12 1 -19z"/>
<path d="M177 413 c-11 -10 -8 -63 3 -63 6 0 10 16 10 35 0 36 -2 40 -13 28z"/>
<path d="M450 386 c0 -20 5 -36 10 -36 6 0 10 13 10 29 0 17 -4 33 -10 36 -6
4 -10 -8 -10 -29z"/>
<path d="M491 410 c-7 -4 -11 -18 -9 -31 5 -35 42 -33 46 2 3 28 -16 43 -37
29z m16 -32 c-3 -8 -6 -5 -6 6 -1 11 2 17 5 13 3 -3 4 -12 1 -19z"/>
<path d="M250 377 c0 -24 22 -67 31 -61 5 2 3 17 -3 32 -16 37 -28 50 -28 29z"/>
<path d="M368 360 c-8 -19 -13 -39 -10 -44 7 -13 34 42 29 62 -2 12 -8 7 -19
-18z"/>
<path d="M310 335 c0 -14 5 -25 10 -25 6 0 10 11 10 25 0 14 -4 25 -10 25 -5
0 -10 -11 -10 -25z"/>
<path d="M150 325 c-17 -21 -8 -50 18 -53 18 -3 22 1 22 26 0 33 -22 48 -40
27z m17 -27 c-3 -8 -6 -5 -6 6 -1 11 2 17 5 13 3 -3 4 -12 1 -19z"/>
<path d="M463 333 c-7 -3 -13 -18 -13 -35 0 -25 3 -29 23 -26 13 2 23 11 25
24 3 23 -16 44 -35 37z m14 -35 c-3 -8 -6 -5 -6 6 -1 11 2 17 5 13 3 -3 4 -12
1 -19z"/>
<path d="M110 300 c0 -16 5 -30 10 -30 6 0 10 14 10 30 0 17 -4 30 -10 30 -5
0 -10 -13 -10 -30z"/>
<path d="M510 300 c0 -16 5 -30 10 -30 6 0 10 14 10 30 0 17 -4 30 -10 30 -5
0 -10 -13 -10 -30z"/>
<path d="M114 596 c-10 -26 0 -51 21 -51 16 0 20 7 20 30 0 33 -30 49 -41 21z
m23 -28 c-3 -8 -6 -5 -6 6 -1 11 2 17 5 13 3 -3 4 -12 1 -19z"/>
<path d="M177 603 c-11 -10 -8 -51 3 -58 6 -4 10 8 10 29 0 37 -2 41 -13 29z"/>
<path d="M450 575 c0 -22 4 -34 10 -30 6 3 10 17 10 30 0 13 -4 27 -10 30 -6
4 -10 -8 -10 -30z"/>
<path d="M484 596 c-10 -26 0 -51 21 -51 16 0 20 7 20 30 0 33 -30 49 -41 21z
m23 -28 c-3 -8 -6 -5 -6 6 -1 11 2 17 5 13 3 -3 4 -12 1 -19z"/>
<path d="M0 190 c0 -120 4 -190 10 -190 6 0 10 70 10 190 0 120 -4 190 -10
190 -6 0 -10 -70 -10 -190z"/>
<path d="M620 135 c0 -83 4 -135 10 -135 6 0 10 52 10 135 0 83 -4 135 -10
135 -6 0 -10 -52 -10 -135z"/>
<path d="M47 53 c-4 -3 -7 -17 -7 -30 0 -30 45 -33 53 -3 5 19 14 20 227 20
213 0 222 -1 227 -20 4 -13 14 -20 30 -20 21 0 24 4 21 27 l-3 28 -271 3
c-149 1 -273 -1 -277 -5z"/>
</g>
</svg>
