<?xml version="1.0" standalone="no"?>
<!DOCTYPE svg PUBLIC "-//W3C//DTD SVG 20010904//EN"
 "http://www.w3.org/TR/2001/REC-SVG-20010904/DTD/svg10.dtd">
<svg version="1.0" xmlns="http://www.w3.org/2000/svg"
 width="64.000000pt" height="44.000000pt" viewBox="0 0 64.000000 64.000000"
 preserveAspectRatio="xMidYMid meet">

<g transform="translate(0.000000,64.000000) scale(0.100000,-0.100000)"
fill="#ffffff" stroke="none">
<path d="M226 594 c-71 -22 -159 -112 -180 -184 -34 -115 -12 -206 73 -291 85
-85 176 -107 291 -73 75 22 162 109 184 184 34 115 12 206 -73 291 -85 84
-180 108 -295 73z m24 -56 c-22 -29 -40 -56 -40 -60 0 -5 -25 -8 -55 -8 -53 0
-55 1 -45 20 18 33 129 97 172 100 4 0 -10 -24 -32 -52z m191 21 c19 -9 51
-32 70 -51 l34 -33 -54 -3 c-41 -2 -57 1 -63 12 -5 8 -24 36 -43 61 l-35 45
27 -6 c16 -4 44 -15 64 -25z m-120 -79 c5 0 9 21 9 47 l0 46 24 -22 c13 -12
36 -45 51 -72 l27 -50 -41 20 c-51 26 -96 27 -144 1 l-38 -20 20 38 c11 22 33
54 48 73 l28 33 3 -47 c2 -26 7 -47 13 -47z m-134 -52 c-3 -13 -9 -40 -12 -60
l-7 -38 -60 0 -60 0 7 36 c14 75 23 84 83 84 51 0 54 -1 49 -22z m212 -6 c58
-43 64 -140 12 -193 -76 -75 -204 -30 -217 77 -14 110 115 183 205 116z m169
4 c6 -13 14 -40 17 -60 l7 -36 -60 0 -60 0 -7 38 c-3 20 -9 47 -12 60 -5 21
-2 22 49 22 48 0 56 -3 66 -24z m-393 -153 c3 -21 9 -48 12 -60 5 -22 2 -23
-49 -23 -60 0 -69 9 -83 84 l-7 36 60 0 60 0 7 -37z m410 1 c-14 -75 -23 -84
-83 -84 -51 0 -54 1 -49 23 3 12 9 39 12 60 l7 37 60 0 60 0 -7 -36z m-265
-104 c17 0 49 9 71 21 l41 20 -27 -50 c-15 -27 -38 -60 -51 -72 l-24 -22 0 46
c0 26 -4 47 -10 47 -5 0 -10 -21 -10 -47 l0 -46 -24 22 c-13 12 -36 45 -51 72
l-27 50 41 -20 c22 -12 54 -21 71 -21z m-110 -7 c0 -5 18 -32 40 -61 l40 -52
-28 6 c-55 14 -145 70 -156 100 -4 11 6 14 49 14 30 0 55 -3 55 -7z m324 -7
c-11 -30 -101 -86 -156 -100 l-28 -6 40 52 c22 29 40 56 40 61 0 4 25 7 55 7
43 0 53 -3 49 -14z"/>
<path d="M294 417 c-3 -8 -4 -41 -2 -73 3 -55 5 -59 28 -59 24 0 25 2 25 70 0
65 -2 70 -23 73 -12 2 -24 -3 -28 -11z m36 -62 c0 -30 -4 -55 -10 -55 -5 0
-10 25 -10 55 0 30 5 55 10 55 6 0 10 -25 10 -55z"/>
<path d="M294 256 c-10 -26 4 -48 28 -44 17 2 23 10 23 28 0 18 -6 26 -23 28
-13 2 -25 -3 -28 -12z m36 -16 c0 -5 -4 -10 -10 -10 -5 0 -10 5 -10 10 0 6 5
10 10 10 6 0 10 -4 10 -10z"/>
</g>
</svg>
