<?xml version="1.0" standalone="no"?>
<!DOCTYPE svg PUBLIC "-//W3C//DTD SVG 20010904//EN"
 "http://www.w3.org/TR/2001/REC-SVG-20010904/DTD/svg10.dtd">
<svg version="1.0" xmlns="http://www.w3.org/2000/svg"
 width="24.000000pt" height="24.000000pt" viewBox="0 0 32.000000 32.000000"
 preserveAspectRatio="xMidYMid meet">

<g transform="translate(0.000000,32.000000) scale(0.100000,-0.100000)"
fill="#00F0FF" stroke="none">
<path d="M95 306 c-101 -44 -125 -178 -46 -257 65 -65 157 -65 222 0 124 124
-15 327 -176 257z m145 -93 c-1 -17 -29 -125 -34 -130 -2 -3 -15 2 -27 11 -17
11 -26 13 -36 4 -10 -8 -13 -6 -13 10 0 11 17 35 38 53 l37 32 -48 -27 c-31
-18 -55 -25 -68 -21 -28 9 -15 20 61 49 68 26 90 31 90 19z"/>
</g>
</svg>
